<svg width="143" height="83" viewBox="0 0 143 83" fill="none" xmlns="http://www.w3.org/2000/svg">
<path d="M76.6679 52.4978C76.5979 54.3288 76.6169 55.6268 76.7269 56.3898C76.9339 57.8258 77.5969 58.7258 78.7169 59.0908C79.9829 59.5018 81.0879 59.3218 82.0319 58.5508C84.0989 56.8618 83.6609 50.5328 79.5359 52.5508C79.1819 52.7248 79.1439 53.0518 79.4209 53.5318C79.4979 53.6648 79.6549 53.7288 79.8029 53.6868C80.1899 53.5748 80.5439 53.5308 80.8639 53.5528C81.1829 53.5778 81.4559 53.7938 81.5539 54.0998C81.9969 55.4988 81.9789 57.7778 80.0229 57.8798C78.8779 57.9388 78.2139 57.1068 78.1489 56.0488C78.0779 54.9378 78.0469 53.7658 78.0549 52.5348C78.0569 52.4018 77.9499 52.2918 77.8159 52.2898H77.8129H76.8819C76.7659 52.2898 76.6709 52.3818 76.6679 52.4978ZM18.9449 52.2748C18.8559 52.2748 18.7829 52.3478 18.7829 52.4388V58.9938C18.7829 59.1018 18.8709 59.1898 18.9789 59.1898H24.6839C24.7799 59.1898 24.8589 59.1128 24.8609 59.0158C24.8769 57.4988 24.8879 56.2828 24.8919 55.3658C24.9039 53.2958 24.6499 52.2618 22.1819 52.2708C20.8599 52.2758 19.7809 52.2768 18.9449 52.2748ZM27.0179 53.6618C27.1239 53.6568 27.2139 53.7368 27.2199 53.8418C27.2199 53.8458 27.2199 53.8498 27.2199 53.8538L27.1889 56.4208C27.1849 56.6338 27.3559 56.8088 27.5699 56.8118C27.5759 56.8128 27.5809 56.8128 27.5859 56.8118L28.3619 56.7908C28.5699 56.7838 28.7339 56.6108 28.7279 56.4028L28.6319 52.4638C28.6289 52.3498 28.5349 52.2598 28.4209 52.2618L26.3349 52.2708C26.1879 52.2708 26.0679 52.3908 26.0679 52.5378C26.0679 52.5398 26.0679 52.5418 26.0679 52.5448L26.0839 53.3978C26.0889 53.5588 26.2229 53.6858 26.3839 53.6808C26.3859 53.6808 26.3879 53.6808 26.3879 53.6808L27.0179 53.6618ZM30.6529 53.9098C30.3419 54.9698 30.2229 55.7418 30.2959 56.2258C30.6289 58.4188 31.8579 59.4288 33.9829 59.2548C36.2649 59.0658 37.0129 56.6258 36.6799 54.7168C36.3199 52.6628 34.7649 52.2368 32.8009 52.3018C32.6519 52.3088 31.7869 52.3068 30.2059 52.2958C30.0549 52.2958 29.9329 52.4188 29.9329 52.5688V53.3478C29.9329 53.5178 30.0699 53.6558 30.2399 53.6558H30.4629C30.5729 53.6558 30.6609 53.7458 30.6609 53.8558C30.6609 53.8738 30.6579 53.8928 30.6529 53.9098ZM52.3709 55.1328C52.1219 54.8948 52.0439 54.4288 52.1349 53.7328C52.1489 53.6318 52.2349 53.5568 52.3369 53.5558C53.3239 53.5438 54.8169 53.3858 55.1919 54.4838C55.3889 55.0618 55.4379 55.6428 55.3409 56.2288C55.0399 58.0728 52.5849 58.0008 51.1759 57.7618C51.0099 57.7328 50.8519 57.8438 50.8229 58.0088C50.8199 58.0258 50.8189 58.0428 50.8189 58.0598V58.8668C50.8189 59.0878 50.9979 59.2678 51.2189 59.2678C51.6659 59.2698 52.1159 59.2738 52.5689 59.2798C55.0799 59.3108 56.9549 58.2058 56.8249 55.5058C56.6539 51.9268 53.9689 52.1628 51.1509 52.2558C51.0469 52.2588 50.9579 52.3338 50.9369 52.4358C50.7769 53.2178 50.7169 53.9828 50.7569 54.7298C50.8309 56.1848 52.0419 56.6388 53.2829 56.4118C53.3849 56.3948 53.4709 56.3298 53.5159 56.2378C53.6029 56.0558 53.6029 55.8058 53.5159 55.4868C53.4909 55.3998 53.4169 55.3358 53.3269 55.3228L52.5349 55.2138C52.4729 55.2038 52.4149 55.1758 52.3709 55.1328ZM60.1519 59.2518C60.2879 59.2518 60.3969 59.1418 60.3969 59.0068V52.5318C60.3969 52.3968 60.2879 52.2868 60.1519 52.2868H58.0289C57.8939 52.2868 57.7839 52.3968 57.7839 52.5318V53.4258C57.7839 53.5608 57.8939 53.6708 58.0289 53.6708H58.6499C58.7849 53.6708 58.8949 53.7808 58.8949 53.9158V59.0068C58.8949 59.1418 59.0049 59.2518 59.1399 59.2518H60.1519ZM65.0689 52.5478V59.0038C65.0689 59.1128 65.1579 59.2018 65.2669 59.2018H66.2449C66.3689 59.2018 66.4689 59.1038 66.4689 58.9818V53.8758C66.4679 53.7608 66.5579 53.6648 66.6729 53.6588C67.4759 53.6218 68.2029 53.6158 68.8519 53.6428C69.4239 53.6678 69.7119 53.9818 69.7179 54.5838C69.7309 55.9248 69.7339 57.3878 69.7279 58.9728C69.7279 59.0938 69.8249 59.1928 69.9449 59.1928H70.9009C71.0229 59.1928 71.1209 59.0928 71.1209 58.9698V55.4868C71.1239 54.0928 71.1179 52.6068 69.5569 52.3858C69.0499 52.3138 67.6349 52.2858 65.3109 52.3018C65.1769 52.3018 65.0689 52.4118 65.0689 52.5478ZM74.6039 52.2558L72.6049 52.2778C72.4439 52.2778 72.3129 52.4098 72.3129 52.5718C72.3129 52.5738 72.3129 52.5768 72.3129 52.5788L72.3349 53.4138C72.3379 53.5658 72.4659 53.6868 72.6199 53.6838C72.6219 53.6838 72.6239 53.6838 72.6269 53.6838L73.2379 53.6498C73.3489 53.6428 73.4449 53.7268 73.4519 53.8378C73.4519 53.8438 73.4519 53.8488 73.4519 53.8538L73.4459 58.9388C73.4459 59.1248 73.5959 59.2768 73.7809 59.2768C73.7839 59.2768 73.7879 59.2768 73.7909 59.2768L74.6349 59.2638C74.8339 59.2608 74.9939 59.0988 74.9919 58.9008L74.9269 52.5788C74.9279 52.4018 74.7869 52.2578 74.6099 52.2558C74.6079 52.2558 74.6059 52.2558 74.6039 52.2558ZM84.4249 52.2648C84.2859 52.2648 84.1729 52.3778 84.1729 52.5168V53.4108C84.1729 53.5488 84.2859 53.6618 84.4249 53.6618H85.0329C85.1719 53.6618 85.2839 53.7748 85.2839 53.9128V56.5328C85.2839 56.6718 85.3969 56.7838 85.5359 56.7838H86.5099C86.6489 56.7838 86.7619 56.6718 86.7619 56.5328V52.5168C86.7619 52.3778 86.6489 52.2648 86.5099 52.2648H84.4249ZM93.8699 58.0568C93.8699 57.9108 93.7519 57.7928 93.6059 57.7928H93.3169C93.1989 57.7938 93.1029 57.6978 93.1019 57.5798C93.1019 57.5728 93.1029 57.5668 93.1029 57.5598C93.1569 56.8688 93.1519 55.8198 93.0879 54.4128C93.0209 52.9498 92.2379 52.2428 90.7379 52.2928C89.9659 52.3178 89.1849 52.3208 88.3949 52.3018C88.2229 52.2988 88.0809 52.4348 88.0779 52.6068C88.0779 52.6088 88.0779 52.6108 88.0779 52.6128V53.3448C88.0779 53.5288 88.2249 53.6778 88.4069 53.6778C88.4119 53.6778 88.4169 53.6778 88.4219 53.6768C89.0159 53.6488 89.7849 53.6388 90.7289 53.6498C91.3409 53.6558 91.6599 53.9118 91.6849 54.4188C91.7319 55.3338 91.7439 56.3838 91.7189 57.5698C91.7169 57.6818 91.6259 57.7718 91.5139 57.7718H88.1739C88.0349 57.7718 87.9229 57.8838 87.9229 58.0228V58.9538C87.9229 59.1098 88.0489 59.2368 88.2049 59.2368H93.6489C93.7709 59.2368 93.8699 59.1388 93.8699 59.0188V58.0568ZM37.7609 58.9628C37.7599 59.1218 37.8839 59.2518 38.0399 59.2578C40.0479 59.3358 41.0039 58.6308 40.9579 56.5488C40.9369 55.5678 40.9289 54.2388 40.9329 52.5628C40.9329 52.4518 40.8429 52.3608 40.7309 52.3608L38.3539 52.3458C38.2119 52.3458 38.0979 52.4588 38.0959 52.5998L38.0899 53.2858C38.0899 53.4578 38.2299 53.5968 38.4029 53.5968L39.3929 53.6028C39.5129 53.6028 39.6109 53.6998 39.6109 53.8198V53.8228L39.5889 56.9648C39.5879 57.3548 39.3109 57.6898 38.9279 57.7678C38.5259 57.8468 38.2309 57.8658 38.0429 57.8238C37.9189 57.7988 37.7969 57.8778 37.7719 58.0028C37.7689 58.0158 37.7669 58.0308 37.7669 58.0448L37.7609 58.9628ZM42.2119 58.9818C42.2119 59.1408 42.3369 59.2718 42.4939 59.2768C44.5049 59.3418 45.4579 58.6278 45.3989 56.5448C45.3699 55.5628 45.3529 54.2318 45.3469 52.5538C45.3469 52.4418 45.2559 52.3518 45.1449 52.3518H42.7639C42.6219 52.3518 42.5069 52.4668 42.5069 52.6098V53.2958C42.5069 53.4668 42.6469 53.6058 42.8199 53.6058H43.8129C43.9329 53.6058 44.0309 53.7028 44.0309 53.8228V56.9708C44.0309 57.3608 43.7559 57.6978 43.3719 57.7778C42.9709 57.8608 42.6759 57.8808 42.4879 57.8398C42.3639 57.8138 42.2419 57.8938 42.2159 58.0178C42.2129 58.0328 42.2119 58.0478 42.2119 58.0628V58.9818ZM47.5599 53.6648C47.6619 53.6628 47.7469 53.7438 47.7489 53.8448C47.7489 53.8478 47.7489 53.8508 47.7489 53.8538L47.6779 56.3408C47.6709 56.5458 47.8329 56.7178 48.0409 56.7248C48.0459 56.7248 48.0509 56.7258 48.0559 56.7258L48.8069 56.7158C49.0099 56.7138 49.1719 56.5488 49.1709 56.3468L49.1399 52.5288C49.1379 52.4198 49.0499 52.3318 48.9409 52.3298L46.9199 52.3058C46.7779 52.3018 46.6599 52.4148 46.6559 52.5568C46.6559 52.5598 46.6559 52.5628 46.6559 52.5658L46.6599 53.3918C46.6589 53.5478 46.7859 53.6738 46.9419 53.6738C46.9439 53.6738 46.9459 53.6738 46.9479 53.6738L47.5599 53.6648Z" stroke="#9EB2E8" stroke-width="0.621"/>
<path d="M119.309 53.3235C119.289 53.2945 119.257 53.2775 119.222 53.2765H106.046C106.011 53.2775 105.979 53.2945 105.959 53.3235L101.825 59.0655C101.79 59.1145 101.803 59.1825 101.852 59.2165C101.869 59.2295 101.89 59.2355 101.912 59.2365H123.353C123.413 59.2355 123.461 59.1855 123.46 59.1255C123.459 59.1045 123.453 59.0835 123.44 59.0655L119.309 53.3235Z" stroke="#80809E" stroke-width="0.621"/>
<path d="M20.4439 57.8644L23.2309 57.8394C23.3549 57.8374 23.4529 57.7364 23.4519 57.6134L23.4239 54.1804C23.4199 53.8514 23.1809 53.5874 22.8899 53.5904L20.7109 53.6094C20.4199 53.6124 20.1859 53.8814 20.1889 54.2104L20.2169 57.6444C20.2189 57.7674 20.3209 57.8664 20.4439 57.8644ZM35.4079 55.4094C35.3119 53.5564 33.9369 53.6124 32.2419 53.6274C32.1079 53.6274 31.9899 53.7124 31.9469 53.8384C31.4259 55.3844 31.4409 58.3544 33.9239 57.8924C35.0909 57.6784 35.4639 56.4804 35.4079 55.4094Z" stroke="#9EB2E8" stroke-width="0.621"/>
<path d="M112.617 23.0946H113.151C113.266 23.0946 113.359 22.9996 113.359 22.8836V22.1416C113.359 22.0216 113.456 21.9246 113.576 21.9246H115.563C115.679 21.9246 115.774 22.0186 115.774 22.1356V22.9026C115.774 23.0136 115.864 23.1036 115.975 23.1036H117.015C117.132 23.1036 117.226 23.0076 117.226 22.8896V22.0916C117.226 22.0016 117.3 21.9276 117.391 21.9276H119.508C119.556 21.9276 119.595 21.9656 119.595 22.0136C119.595 22.0276 119.592 22.0426 119.585 22.0546L118.477 24.1686C118.429 24.2586 118.336 24.3146 118.235 24.3146H112.617C109.01 24.3126 107.138 24.3116 106.999 24.3116C106.898 24.3116 106.805 24.2556 106.757 24.1656L105.649 22.0516C105.626 22.0096 105.643 21.9566 105.685 21.9346C105.699 21.9276 105.714 21.9236 105.729 21.9246H107.846C107.936 21.9266 108.008 21.9996 108.008 22.0886V22.8866C108.008 23.0046 108.102 23.1006 108.219 23.1006H109.259C109.37 23.1006 109.46 23.0106 109.46 22.8986V22.1326C109.46 22.0156 109.555 21.9216 109.671 21.9216H109.674L111.661 21.9246C111.78 21.9266 111.875 22.0226 111.875 22.1416V22.8836C111.875 23.0006 111.968 23.0946 112.083 23.0946H112.617Z" fill="#00003D"/>
<path d="M108.511 25.3853H116.712C116.775 25.3853 116.826 25.4363 116.826 25.5003V31.2233C116.826 31.2873 116.775 31.3383 116.712 31.3383H108.511C108.448 31.3383 108.396 31.2873 108.396 31.2233V25.5003C108.396 25.4363 108.448 25.3853 108.511 25.3853Z" fill="#00003D"/>
<path d="M35.1068 27.8529H38.7348C38.8058 27.8529 38.8628 27.9099 38.8628 27.9799V31.2239C38.8628 31.2939 38.9198 31.3509 38.9898 31.3509H48.8758C48.9458 31.3509 49.0028 31.4079 49.0028 31.4779V34.5699C49.0028 34.5869 48.9998 34.6039 48.9938 34.6189L44.1768 46.2059C44.1568 46.2529 44.1118 46.2829 44.0618 46.2839H39.9958C39.9248 46.2829 39.8688 46.2249 39.8708 46.1539C39.8708 46.1379 39.8738 46.1219 39.8808 46.1069L44.3188 35.4199C44.3468 35.3559 44.3168 35.2809 44.2518 35.2529C44.2368 35.2469 44.2208 35.2439 44.2048 35.2429H35.1068C35.0368 35.2429 34.9798 35.1859 34.9798 35.1159V27.9799C34.9798 27.9099 35.0368 27.8529 35.1068 27.8529Z" fill="#00003D"/>
<path d="M50.5393 35.1377V31.4567C50.5393 31.3977 50.5863 31.3507 50.6453 31.3507H64.4543C64.5123 31.3507 64.5593 31.3977 64.5593 31.4567V35.1407C64.5593 35.1987 64.5123 35.2467 64.4543 35.2467H62.2473C62.1893 35.2467 62.1413 35.2937 62.1413 35.3517V46.1817C62.1413 46.2397 62.0943 46.2867 62.0363 46.2867H58.3023C58.2443 46.2867 58.1963 46.2397 58.1963 46.1817V36.5407C58.1963 36.5127 58.2083 36.4857 58.2273 36.4657L59.2733 35.4237C59.3143 35.3817 59.3143 35.3147 59.2733 35.2737C59.2533 35.2547 59.2273 35.2437 59.1993 35.2437H50.6453C50.5863 35.2437 50.5393 35.1957 50.5393 35.1377Z" fill="#00003D"/>
<path d="M75.9261 46.2838H72.7911C72.6971 46.2838 72.6131 46.2228 72.5831 46.1318L71.7361 43.4938C71.7141 43.4208 71.6381 43.3808 71.5651 43.4028C71.5181 43.4168 71.4831 43.4548 71.4721 43.5028C71.1581 44.8068 70.2551 46.2498 68.7561 46.2678C67.4341 46.2868 66.2491 46.2898 65.2021 46.2778C65.0921 46.2758 65.0031 46.1858 65.0031 46.0758V42.4688C65.0031 42.4108 65.0511 42.3638 65.1091 42.3638C66.5881 42.3678 67.6321 42.3728 68.2411 42.3788C70.1841 42.4008 70.8851 41.2558 70.5381 39.5108C70.1861 37.7438 69.9191 36.3648 69.7371 35.3738C69.7221 35.2998 69.6571 35.2468 69.5821 35.2468H66.7511C66.6511 35.2468 66.5711 35.1658 66.5711 35.0668V31.5278C66.5711 31.4288 66.6501 31.3478 66.7481 31.3478H72.8351C72.9321 31.3478 73.0161 31.4158 73.0361 31.5128L76.0941 46.0758C76.1121 46.1698 76.0531 46.2618 75.9611 46.2808C75.9491 46.2828 75.9381 46.2838 75.9261 46.2838Z" fill="#00003D"/>
<path d="M112.624 32.369C116.285 32.367 118.287 32.363 118.63 32.357C118.685 32.355 118.73 32.399 118.732 32.454C118.732 32.471 118.728 32.487 118.72 32.502L117.702 34.439C117.592 34.651 117.534 34.887 117.534 35.125V38.049C117.534 38.167 117.441 38.263 117.323 38.266C117.166 38.268 115.6 38.271 112.624 38.273C109.65 38.273 108.085 38.272 107.928 38.269C107.81 38.266 107.717 38.17 107.717 38.052L107.714 35.128C107.714 34.89 107.656 34.654 107.546 34.442L106.525 32.509C106.497 32.461 106.514 32.4 106.561 32.373C106.577 32.364 106.596 32.359 106.615 32.36C106.958 32.366 108.961 32.369 112.624 32.369Z" fill="#00003D"/>
<path d="M112.633 39.3156C113.167 39.3156 113.509 39.3216 113.66 39.3346C113.764 39.3426 113.844 39.4286 113.844 39.5326V40.2776C113.844 40.3976 113.941 40.4946 114.061 40.4946H115.088C115.212 40.4946 115.312 40.3946 115.312 40.2716V39.4676C115.312 39.3806 115.383 39.3096 115.47 39.3096H117.54C117.629 39.3096 117.702 39.3816 117.702 39.4706V40.2686C117.702 40.3936 117.804 40.4946 117.931 40.4946H118.965C119.083 40.4946 119.179 40.3976 119.179 40.2776V39.4836C119.179 39.3886 119.257 39.3126 119.353 39.3126H121.768C121.831 39.3126 121.883 39.3636 121.883 39.4266C121.883 39.4456 121.879 39.4636 121.87 39.4806L118.915 45.1106C118.871 45.1936 118.785 45.2446 118.692 45.2436C117.359 45.2336 115.34 45.2286 112.633 45.2286C109.924 45.2286 107.904 45.2336 106.571 45.2436C106.479 45.2436 106.394 45.1926 106.351 45.1106L103.396 39.4806C103.367 39.4236 103.389 39.3546 103.445 39.3256C103.461 39.3166 103.48 39.3126 103.498 39.3126H105.913C106.009 39.3126 106.087 39.3886 106.087 39.4836V40.2776C106.087 40.3976 106.183 40.4946 106.301 40.4946H107.335C107.461 40.4946 107.564 40.3936 107.564 40.2686V39.4706C107.564 39.3816 107.637 39.3096 107.726 39.3096H109.796C109.883 39.3096 109.954 39.3806 109.954 39.4676V40.2716C109.954 40.3946 110.054 40.4946 110.178 40.4946H111.205C111.325 40.4946 111.422 40.3976 111.422 40.2776V39.5326C111.422 39.4296 111.5 39.3436 111.602 39.3346C111.754 39.3216 112.097 39.3156 112.633 39.3156Z" fill="#00003D"/>
<path d="M112.624 46.3241C116.543 46.3241 118.573 46.3261 118.714 46.3301C118.781 46.3321 118.835 46.3871 118.835 46.4541V52.0411C118.835 52.1391 118.756 52.2181 118.658 52.2181H113.999C113.909 52.2181 113.835 52.1471 113.831 52.0571C113.831 52.0551 113.835 51.3211 113.841 49.8561C113.844 49.1051 113.347 48.6431 112.624 48.6431C111.901 48.6401 111.404 49.1051 111.407 49.8561C111.413 51.3211 111.417 52.0551 111.417 52.0571C111.413 52.1471 111.339 52.2181 111.249 52.2181H106.59C106.492 52.2181 106.413 52.1391 106.413 52.0411V46.4541C106.413 46.3861 106.469 46.3301 106.537 46.3301C106.678 46.3261 108.707 46.3241 112.624 46.3241Z" fill="#00003D"/>
<path d="M76.6679 52.4978C76.6709 52.3818 76.7659 52.2898 76.8819 52.2898H77.8129C77.9469 52.2898 78.0549 52.3978 78.0549 52.5318V52.5348C78.0469 53.7658 78.0779 54.9378 78.1489 56.0488C78.2139 57.1068 78.8779 57.9388 80.0229 57.8798C81.9789 57.7778 81.9969 55.4988 81.5539 54.0998C81.4559 53.7938 81.1829 53.5778 80.8639 53.5528C80.5439 53.5308 80.1899 53.5748 79.8029 53.6868C79.6549 53.7288 79.4979 53.6648 79.4209 53.5318C79.1439 53.0518 79.1819 52.7248 79.5359 52.5508C83.6609 50.5328 84.0989 56.8618 82.0319 58.5508C81.0879 59.3218 79.9829 59.5018 78.7169 59.0908C77.5969 58.7258 76.9339 57.8258 76.7269 56.3898C76.6169 55.6268 76.5979 54.3288 76.6679 52.4978Z" fill="#3D63D4"/>
<path d="M18.9448 52.2743C19.7808 52.2763 20.8598 52.2753 22.1818 52.2713C24.6498 52.2623 24.9038 53.2953 24.8918 55.3653C24.8878 56.2823 24.8778 57.4993 24.8608 59.0163C24.8588 59.1123 24.7808 59.1893 24.6838 59.1893H18.9788C18.8708 59.1893 18.7838 59.1023 18.7838 58.9943V52.4393C18.7838 52.3483 18.8558 52.2743 18.9448 52.2743ZM20.4438 57.8643L23.2308 57.8393C23.3548 57.8383 23.4538 57.7363 23.4518 57.6133L23.4238 54.1803C23.4198 53.8513 23.1808 53.5873 22.8898 53.5903L20.7108 53.6093C20.4198 53.6123 20.1858 53.8813 20.1898 54.2103V54.2113L20.2178 57.6443C20.2188 57.7673 20.3208 57.8663 20.4438 57.8643Z" fill="#3D63D4"/>
<path d="M27.018 53.6618L26.388 53.6808C26.227 53.6878 26.091 53.5628 26.084 53.4018C26.084 53.3998 26.084 53.3978 26.084 53.3978L26.068 52.5448C26.065 52.3968 26.181 52.2748 26.329 52.2718C26.331 52.2708 26.333 52.2708 26.335 52.2708L28.421 52.2618C28.535 52.2598 28.629 52.3498 28.632 52.4638L28.728 56.4028C28.733 56.6108 28.57 56.7838 28.362 56.7908L27.586 56.8118C27.372 56.8178 27.194 56.6498 27.189 56.4368C27.189 56.4318 27.189 56.4268 27.189 56.4208L27.22 53.8538C27.222 53.7498 27.137 53.6638 27.031 53.6618C27.027 53.6618 27.022 53.6618 27.018 53.6618Z" fill="#3D63D4"/>
<path d="M30.4633 53.6555H30.2403C30.0703 53.6555 29.9323 53.5175 29.9323 53.3485V52.5695C29.9323 52.4185 30.0553 52.2965 30.2053 52.2965C31.7863 52.3065 32.6513 52.3085 32.8003 52.3025C34.7653 52.2375 36.3203 52.6625 36.6803 54.7175C37.0123 56.6255 36.2643 59.0655 33.9833 59.2545C31.8583 59.4285 30.6293 58.4185 30.2953 56.2255C30.2233 55.7415 30.3423 54.9695 30.6523 53.9105C30.6833 53.8045 30.6233 53.6945 30.5183 53.6635C30.5003 53.6585 30.4813 53.6555 30.4633 53.6555ZM35.4083 55.4095C35.3113 53.5565 33.9363 53.6125 32.2423 53.6275C32.1083 53.6275 31.9893 53.7125 31.9473 53.8385C31.4253 55.3845 31.4413 58.3545 33.9243 57.8925C35.0913 57.6785 35.4633 56.4805 35.4083 55.4095Z" fill="#3D63D4"/>
<path d="M52.5351 55.2137L53.3261 55.3227C53.4171 55.3357 53.4911 55.3997 53.5161 55.4867C53.6031 55.8057 53.6031 56.0557 53.5161 56.2377C53.4711 56.3297 53.3841 56.3947 53.2831 56.4117C52.0411 56.6387 50.8311 56.1857 50.7561 54.7297C50.7171 53.9827 50.7771 53.2177 50.9371 52.4357C50.9581 52.3337 51.0461 52.2587 51.1511 52.2557C53.9691 52.1627 56.6541 51.9267 56.8251 55.5057C56.9551 58.2057 55.0801 59.3107 52.5691 59.2797C52.1161 59.2737 51.6661 59.2697 51.2191 59.2677C50.9981 59.2677 50.8191 59.0877 50.8191 58.8667V58.0597C50.8191 57.8917 50.9561 57.7567 51.1241 57.7577C51.1411 57.7577 51.1591 57.7587 51.1751 57.7617C52.5851 58.0007 55.0401 58.0727 55.3411 56.2287C55.4381 55.6427 55.3891 55.0617 55.1921 54.4847C54.8161 53.3857 53.3231 53.5437 52.3361 53.5567C52.2341 53.5567 52.1491 53.6317 52.1351 53.7327C52.0441 54.4287 52.1221 54.8947 52.3701 55.1327C52.4151 55.1757 52.4721 55.2037 52.5351 55.2137Z" fill="#3D63D4"/>
<path d="M60.1521 59.2519H59.1401C59.0051 59.2519 58.8951 59.1419 58.8951 59.0069V53.9159C58.8951 53.7809 58.7851 53.6709 58.6501 53.6709H58.0291C57.8941 53.6709 57.7841 53.5609 57.7841 53.4259V52.5319C57.7841 52.3969 57.8941 52.2869 58.0291 52.2869H60.1521C60.2871 52.2869 60.3971 52.3969 60.3971 52.5319V59.0069C60.3971 59.1419 60.2871 59.2519 60.1521 59.2519Z" fill="#3D63D4"/>
<path d="M65.3108 52.3023C67.6348 52.2853 69.0498 52.3133 69.5568 52.3863C71.1178 52.6063 71.1248 54.0933 71.1208 55.4873V58.9693C71.1208 59.0933 71.0228 59.1933 70.9008 59.1933H69.9448C69.8248 59.1933 69.7278 59.0943 69.7278 58.9723C69.7338 57.3873 69.7308 55.9243 69.7188 54.5833C69.7118 53.9813 69.4238 53.6683 68.8528 53.6433C68.2028 53.6163 67.4758 53.6213 66.6738 53.6583C66.5578 53.6653 66.4688 53.7603 66.4688 53.8763V58.9823C66.4688 59.1033 66.3688 59.2023 66.2448 59.2023H65.2678C65.1578 59.2023 65.0688 59.1133 65.0688 59.0033V52.5473C65.0688 52.4123 65.1768 52.3023 65.3108 52.3023Z" fill="#3D63D4"/>
<path d="M74.6039 52.2557C74.7809 52.2537 74.9249 52.3957 74.9269 52.5727C74.9269 52.5747 74.9269 52.5767 74.9269 52.5787L74.9919 58.9007C74.9939 59.0987 74.8339 59.2607 74.6349 59.2647L73.7909 59.2767C73.6059 59.2817 73.4519 59.1347 73.4459 58.9477C73.4459 58.9447 73.4459 58.9417 73.4459 58.9387L73.4519 53.8547C73.4539 53.7427 73.3659 53.6507 73.2539 53.6487C73.2489 53.6487 73.2439 53.6487 73.2379 53.6497L72.6269 53.6837C72.4729 53.6907 72.3419 53.5727 72.3349 53.4197C72.3349 53.4177 72.3349 53.4157 72.3349 53.4137L72.3129 52.5787C72.3099 52.4157 72.4379 52.2807 72.5989 52.2777C72.6009 52.2777 72.6029 52.2777 72.6049 52.2777L74.6039 52.2557Z" fill="#3D63D4"/>
<path d="M84.4245 52.265H86.5105C86.6495 52.265 86.7615 52.378 86.7615 52.516V56.533C86.7615 56.672 86.6495 56.784 86.5105 56.784H85.5355C85.3965 56.784 85.2845 56.672 85.2845 56.533V53.913C85.2845 53.774 85.1715 53.662 85.0325 53.662H84.4245C84.2855 53.662 84.1735 53.549 84.1735 53.41V52.516C84.1735 52.378 84.2855 52.265 84.4245 52.265Z" fill="#3D63D4"/>
<path d="M93.6494 59.2364H88.2054C88.0494 59.2364 87.9224 59.1104 87.9224 58.9544V58.0224C87.9224 57.8844 88.0354 57.7714 88.1744 57.7714H91.5144C91.6254 57.7714 91.7174 57.6814 91.7184 57.5694C91.7434 56.3844 91.7324 55.3334 91.6844 54.4194C91.6594 53.9124 91.3414 53.6554 90.7284 53.6494C89.7854 53.6394 89.0164 53.6484 88.4224 53.6774C88.2414 53.6854 88.0864 53.5444 88.0784 53.3614C88.0784 53.3554 88.0784 53.3504 88.0784 53.3454V52.6124C88.0774 52.4414 88.2164 52.3024 88.3884 52.3024C88.3904 52.3024 88.3924 52.3024 88.3944 52.3024C89.1854 52.3214 89.9664 52.3174 90.7384 52.2934C92.2384 52.2434 93.0214 52.9504 93.0874 54.4134C93.1514 55.8204 93.1574 56.8694 93.1034 57.5604C93.0924 57.6784 93.1804 57.7824 93.2974 57.7924C93.3044 57.7924 93.3104 57.7934 93.3174 57.7934H93.6064C93.7514 57.7934 93.8694 57.9114 93.8694 58.0574V59.0194C93.8694 59.1394 93.7714 59.2364 93.6494 59.2364Z" fill="#3D63D4"/>
<path d="M37.7606 58.9632L37.7666 58.0442C37.7696 57.9172 37.8746 57.8172 38.0006 57.8192C38.0156 57.8192 38.0296 57.8212 38.0426 57.8242C38.2316 57.8652 38.5266 57.8472 38.9276 57.7682C39.3116 57.6902 39.5876 57.3542 39.5886 56.9642L39.6106 53.8232C39.6126 53.7032 39.5166 53.6042 39.3966 53.6032H39.3936L38.4036 53.5962C38.2296 53.5962 38.0896 53.4572 38.0896 53.2862L38.0956 52.6002C38.0976 52.4592 38.2126 52.3452 38.3536 52.3452L40.7306 52.3612C40.8426 52.3612 40.9326 52.4512 40.9326 52.5632C40.9286 54.2392 40.9366 55.5672 40.9576 56.5482C41.0046 58.6312 40.0486 59.3352 38.0396 59.2582C37.8836 59.2512 37.7606 59.1212 37.7606 58.9632Z" fill="#3D63D4"/>
<path d="M42.4878 57.8396C42.6758 57.8806 42.9708 57.8606 43.3728 57.7776C43.7558 57.6976 44.0308 57.3606 44.0308 56.9706V53.8236C44.0308 53.7036 43.9328 53.6056 43.8128 53.6056H42.8198C42.6468 53.6056 42.5068 53.4666 42.5068 53.2956V52.6096C42.5068 52.4676 42.6218 52.3516 42.7638 52.3516H45.1448C45.2558 52.3516 45.3468 52.4426 45.3468 52.5536C45.3528 54.2316 45.3708 55.5626 45.3988 56.5456C45.4578 58.6276 44.5058 59.3416 42.4938 59.2766C42.3368 59.2716 42.2118 59.1416 42.2118 58.9816V58.0626C42.2128 57.9366 42.3158 57.8336 42.4428 57.8346C42.4578 57.8346 42.4728 57.8366 42.4878 57.8396Z" fill="#3D63D4"/>
<path d="M47.5596 53.6649L46.9486 53.6739C46.7926 53.6779 46.6626 53.5539 46.6596 53.3979C46.6596 53.3959 46.6596 53.3939 46.6596 53.3919L46.6566 52.5659C46.6546 52.4239 46.7686 52.3069 46.9106 52.3049C46.9136 52.3049 46.9166 52.3049 46.9206 52.3059L48.9406 52.3299C49.0496 52.3319 49.1376 52.4199 49.1396 52.5289L49.1706 56.3469C49.1726 56.5489 49.0096 56.7139 48.8076 56.7159L48.0566 56.7249C47.8486 56.7269 47.6796 56.5619 47.6776 56.3559C47.6776 56.3509 47.6776 56.3459 47.6776 56.3409L47.7486 53.8539C47.7526 53.7529 47.6716 53.6689 47.5696 53.6649C47.5656 53.6649 47.5626 53.6649 47.5596 53.6649Z" fill="#3D63D4"/>
<path d="M119.309 53.3235L123.44 59.0655C123.475 59.1145 123.463 59.1825 123.413 59.2165C123.396 59.2295 123.375 59.2355 123.353 59.2365H101.912C101.852 59.2355 101.804 59.1855 101.805 59.1255C101.806 59.1045 101.813 59.0835 101.825 59.0655L105.959 53.3235C105.979 53.2945 106.011 53.2775 106.046 53.2765H119.222C119.257 53.2775 119.289 53.2945 119.309 53.3235Z" fill="#00003D"/>
<path d="M77.4471 46.0789C77.4641 45.8349 77.8031 43.6509 78.4651 39.5269C78.6411 38.4279 78.9051 37.4609 79.2571 36.6249C79.2951 36.5319 79.2831 36.4259 79.2261 36.3449L75.7961 31.5779C75.7491 31.5119 75.7651 31.4209 75.8311 31.3739C75.8551 31.3569 75.8841 31.3479 75.9141 31.3479H80.2001C80.3681 31.3479 80.5251 31.4279 80.6221 31.5619L81.4941 32.7759C81.5771 32.8899 81.7361 32.9149 81.8501 32.8329C81.8561 32.8279 81.8611 32.8239 81.8671 32.8189C84.2071 30.8389 87.2031 30.5749 89.8911 31.8849C94.7921 34.2719 95.1731 41.8079 90.9521 45.0299C89.2011 46.3609 86.6191 46.7989 84.4461 46.4199C84.2781 46.3919 84.1551 46.2459 84.1551 46.0759L84.1611 42.7239C84.1621 42.6689 84.2061 42.6249 84.2591 42.6249C84.2721 42.6249 84.2851 42.6279 84.2971 42.6339C84.2991 42.6359 84.6481 42.6969 85.3431 42.8169C87.6651 43.2199 89.7661 41.4819 89.9061 39.1949C90.0301 37.0839 88.8661 35.1439 86.6221 35.0229C83.9901 34.8799 82.8261 37.3819 82.4441 39.6169C82.4221 39.7449 82.0451 41.9079 81.3141 46.1069C81.2961 46.2109 81.2061 46.2869 81.1001 46.2869H77.6391C77.5331 46.2869 77.4471 46.2009 77.4461 46.0949C77.4461 46.0899 77.4471 46.0839 77.4471 46.0789Z" fill="#00003D"/>
</svg>
