<svg width="105" height="56" viewBox="0 0 105 56" fill="none" xmlns="http://www.w3.org/2000/svg">
<path d="M58.6679 38.4978C58.5979 40.3288 58.6169 41.6268 58.7269 42.3898C58.9339 43.8258 59.5969 44.7258 60.7169 45.0908C61.9829 45.5018 63.0879 45.3218 64.0319 44.5508C66.0989 42.8618 65.6609 36.5328 61.5359 38.5508C61.1819 38.7248 61.1439 39.0518 61.4209 39.5318C61.4979 39.6648 61.6549 39.7288 61.8029 39.6868C62.1899 39.5748 62.5439 39.5308 62.8639 39.5528C63.1829 39.5778 63.4559 39.7938 63.5539 40.0998C63.9969 41.4988 63.9789 43.7778 62.0229 43.8798C60.8779 43.9388 60.2139 43.1068 60.1489 42.0488C60.0779 40.9378 60.0469 39.7658 60.0549 38.5348C60.0569 38.4018 59.9499 38.2918 59.8159 38.2898H59.8129H58.8819C58.7659 38.2898 58.6709 38.3818 58.6679 38.4978ZM0.944927 38.2748C0.855927 38.2748 0.782928 38.3478 0.782928 38.4388V44.9938C0.782928 45.1018 0.870928 45.1898 0.978928 45.1898H6.68393C6.77993 45.1898 6.85893 45.1128 6.86093 45.0158C6.87693 43.4988 6.88793 42.2828 6.89193 41.3658C6.90393 39.2958 6.64993 38.2618 4.18193 38.2708C2.85993 38.2758 1.78093 38.2768 0.944927 38.2748ZM9.01793 39.6618C9.12393 39.6568 9.21392 39.7368 9.21992 39.8418C9.21992 39.8458 9.21992 39.8498 9.21992 39.8538L9.18893 42.4208C9.18493 42.6338 9.35593 42.8088 9.56993 42.8118C9.57593 42.8128 9.58093 42.8128 9.58593 42.8118L10.3619 42.7908C10.5699 42.7838 10.7339 42.6108 10.7279 42.4028L10.6319 38.4638C10.6289 38.3498 10.5349 38.2598 10.4209 38.2618L8.33493 38.2708C8.18793 38.2708 8.06793 38.3908 8.06793 38.5378C8.06793 38.5398 8.06793 38.5418 8.06793 38.5448L8.08393 39.3978C8.08893 39.5588 8.22293 39.6858 8.38393 39.6808C8.38593 39.6808 8.38793 39.6808 8.38793 39.6808L9.01793 39.6618ZM12.6529 39.9098C12.3419 40.9698 12.2229 41.7418 12.2959 42.2258C12.6289 44.4188 13.8579 45.4288 15.9829 45.2548C18.2649 45.0658 19.0129 42.6258 18.6799 40.7168C18.3199 38.6628 16.7649 38.2368 14.8009 38.3018C14.6519 38.3088 13.7869 38.3068 12.2059 38.2958C12.0549 38.2958 11.9329 38.4188 11.9329 38.5688V39.3478C11.9329 39.5178 12.0699 39.6558 12.2399 39.6558H12.4629C12.5729 39.6558 12.6609 39.7458 12.6609 39.8558C12.6609 39.8738 12.6579 39.8928 12.6529 39.9098ZM34.3709 41.1328C34.1219 40.8948 34.0439 40.4288 34.1349 39.7328C34.1489 39.6318 34.2349 39.5568 34.3369 39.5558C35.3239 39.5438 36.8169 39.3858 37.1919 40.4838C37.3889 41.0618 37.4379 41.6428 37.3409 42.2288C37.0399 44.0728 34.5849 44.0008 33.1759 43.7618C33.0099 43.7328 32.8519 43.8438 32.8229 44.0088C32.8199 44.0258 32.8189 44.0428 32.8189 44.0598V44.8668C32.8189 45.0878 32.9979 45.2678 33.2189 45.2678C33.6659 45.2698 34.1159 45.2738 34.5689 45.2798C37.0799 45.3108 38.9549 44.2058 38.8249 41.5058C38.6539 37.9268 35.9689 38.1628 33.1509 38.2558C33.0469 38.2588 32.9579 38.3338 32.9369 38.4358C32.7769 39.2178 32.7169 39.9828 32.7569 40.7298C32.8309 42.1848 34.0419 42.6388 35.2829 42.4118C35.3849 42.3948 35.4709 42.3298 35.5159 42.2378C35.6029 42.0558 35.6029 41.8058 35.5159 41.4868C35.4909 41.3998 35.4169 41.3358 35.3269 41.3228L34.5349 41.2138C34.4729 41.2038 34.4149 41.1758 34.3709 41.1328ZM42.1519 45.2518C42.2879 45.2518 42.3969 45.1418 42.3969 45.0068V38.5318C42.3969 38.3968 42.2879 38.2868 42.1519 38.2868H40.0289C39.8939 38.2868 39.7839 38.3968 39.7839 38.5318V39.4258C39.7839 39.5608 39.8939 39.6708 40.0289 39.6708H40.6499C40.7849 39.6708 40.8949 39.7808 40.8949 39.9158V45.0068C40.8949 45.1418 41.0049 45.2518 41.1399 45.2518H42.1519ZM47.0689 38.5478V45.0038C47.0689 45.1128 47.1579 45.2018 47.2669 45.2018H48.2449C48.3689 45.2018 48.4689 45.1038 48.4689 44.9818V39.8758C48.4679 39.7608 48.5579 39.6648 48.6729 39.6588C49.4759 39.6218 50.2029 39.6158 50.8519 39.6428C51.4239 39.6678 51.7119 39.9818 51.7179 40.5838C51.7309 41.9248 51.7339 43.3878 51.7279 44.9728C51.7279 45.0938 51.8249 45.1928 51.9449 45.1928H52.9009C53.0229 45.1928 53.1209 45.0928 53.1209 44.9698V41.4868C53.1239 40.0928 53.1179 38.6068 51.5569 38.3858C51.0499 38.3138 49.6349 38.2858 47.3109 38.3018C47.1769 38.3018 47.0689 38.4118 47.0689 38.5478ZM56.6039 38.2558L54.6049 38.2778C54.4439 38.2778 54.3129 38.4098 54.3129 38.5718C54.3129 38.5738 54.3129 38.5768 54.3129 38.5788L54.3349 39.4138C54.3379 39.5658 54.4659 39.6868 54.6199 39.6838C54.6219 39.6838 54.6239 39.6838 54.6269 39.6838L55.2379 39.6498C55.3489 39.6428 55.4449 39.7268 55.4519 39.8378C55.4519 39.8438 55.4519 39.8488 55.4519 39.8538L55.4459 44.9388C55.4459 45.1248 55.5959 45.2768 55.7809 45.2768C55.7839 45.2768 55.7879 45.2768 55.7909 45.2768L56.6349 45.2638C56.8339 45.2608 56.9939 45.0988 56.9919 44.9008L56.9269 38.5788C56.9279 38.4018 56.7869 38.2578 56.6099 38.2558C56.6079 38.2558 56.6059 38.2558 56.6039 38.2558ZM66.4249 38.2648C66.2859 38.2648 66.1729 38.3778 66.1729 38.5168V39.4108C66.1729 39.5488 66.2859 39.6618 66.4249 39.6618H67.0329C67.1719 39.6618 67.2839 39.7748 67.2839 39.9128V42.5328C67.2839 42.6718 67.3969 42.7838 67.5359 42.7838H68.5099C68.6489 42.7838 68.7619 42.6718 68.7619 42.5328V38.5168C68.7619 38.3778 68.6489 38.2648 68.5099 38.2648H66.4249ZM75.8699 44.0568C75.8699 43.9108 75.7519 43.7928 75.6059 43.7928H75.3169C75.1989 43.7938 75.1029 43.6978 75.1019 43.5798C75.1019 43.5728 75.1029 43.5668 75.1029 43.5598C75.1569 42.8688 75.1519 41.8198 75.0879 40.4128C75.0209 38.9498 74.2379 38.2428 72.7379 38.2928C71.9659 38.3178 71.1849 38.3208 70.3949 38.3018C70.2229 38.2988 70.0809 38.4348 70.0779 38.6068C70.0779 38.6088 70.0779 38.6108 70.0779 38.6128V39.3448C70.0779 39.5288 70.2249 39.6778 70.4069 39.6778C70.4119 39.6778 70.4169 39.6778 70.4219 39.6768C71.0159 39.6488 71.7849 39.6388 72.7289 39.6498C73.3409 39.6558 73.6599 39.9118 73.6849 40.4188C73.7319 41.3338 73.7439 42.3838 73.7189 43.5698C73.7169 43.6818 73.6259 43.7718 73.5139 43.7718H70.1739C70.0349 43.7718 69.9229 43.8838 69.9229 44.0228V44.9538C69.9229 45.1098 70.0489 45.2368 70.2049 45.2368H75.6489C75.7709 45.2368 75.8699 45.1388 75.8699 45.0188V44.0568ZM19.7609 44.9628C19.7599 45.1218 19.8839 45.2518 20.0399 45.2578C22.0479 45.3358 23.0039 44.6308 22.9579 42.5488C22.9369 41.5678 22.9289 40.2388 22.9329 38.5628C22.9329 38.4518 22.8429 38.3608 22.7309 38.3608L20.3539 38.3458C20.2119 38.3458 20.0979 38.4588 20.0959 38.5998L20.0899 39.2858C20.0899 39.4578 20.2299 39.5968 20.4029 39.5968L21.3929 39.6028C21.5129 39.6028 21.6109 39.6998 21.6109 39.8198V39.8228L21.5889 42.9648C21.5879 43.3548 21.3109 43.6898 20.9279 43.7678C20.5259 43.8468 20.2309 43.8658 20.0429 43.8238C19.9189 43.7988 19.7969 43.8778 19.7719 44.0028C19.7689 44.0158 19.7669 44.0308 19.7669 44.0448L19.7609 44.9628ZM24.2119 44.9818C24.2119 45.1408 24.3369 45.2718 24.4939 45.2768C26.5049 45.3418 27.4579 44.6278 27.3989 42.5448C27.3699 41.5628 27.3529 40.2318 27.3469 38.5538C27.3469 38.4418 27.2559 38.3518 27.1449 38.3518H24.7639C24.6219 38.3518 24.5069 38.4668 24.5069 38.6098V39.2958C24.5069 39.4668 24.6469 39.6058 24.8199 39.6058H25.8129C25.9329 39.6058 26.0309 39.7028 26.0309 39.8228V42.9708C26.0309 43.3608 25.7559 43.6978 25.3719 43.7778C24.9709 43.8608 24.6759 43.8808 24.4879 43.8398C24.3639 43.8138 24.2419 43.8938 24.2159 44.0178C24.2129 44.0328 24.2119 44.0478 24.2119 44.0628V44.9818ZM29.5599 39.6648C29.6619 39.6628 29.7469 39.7438 29.7489 39.8448C29.7489 39.8478 29.7489 39.8508 29.7489 39.8538L29.6779 42.3408C29.6709 42.5458 29.8329 42.7178 30.0409 42.7248C30.0459 42.7248 30.0509 42.7258 30.0559 42.7258L30.8069 42.7158C31.0099 42.7138 31.1719 42.5488 31.1709 42.3468L31.1399 38.5288C31.1379 38.4198 31.0499 38.3318 30.9409 38.3298L28.9199 38.3058C28.7779 38.3018 28.6599 38.4148 28.6559 38.5568C28.6559 38.5598 28.6559 38.5628 28.6559 38.5658L28.6599 39.3918C28.6589 39.5478 28.7859 39.6738 28.9419 39.6738C28.9439 39.6738 28.9459 39.6738 28.9479 39.6738L29.5599 39.6648Z" stroke="#9EB2E8" stroke-width="0.621"/>
<path d="M2.44393 43.8644L5.23093 43.8394C5.35493 43.8374 5.45293 43.7364 5.45193 43.6134L5.42393 40.1804C5.41993 39.8514 5.18093 39.5874 4.88993 39.5904L2.71093 39.6094C2.41993 39.6124 2.18593 39.8814 2.18893 40.2104L2.21693 43.6444C2.21893 43.7674 2.32093 43.8664 2.44393 43.8644ZM17.4079 41.4094C17.3119 39.5564 15.9369 39.6124 14.2419 39.6274C14.1079 39.6274 13.9899 39.7124 13.9469 39.8384C13.4259 41.3844 13.4409 44.3544 15.9239 43.8924C17.0909 43.6784 17.4639 42.4804 17.4079 41.4094Z" stroke="#9EB2E8" stroke-width="0.621"/>
<path d="M94.6173 9.09458H95.1513C95.2663 9.09458 95.3593 8.99958 95.3593 8.88358V8.14158C95.3593 8.02158 95.4563 7.92458 95.5763 7.92458H97.5633C97.6793 7.92458 97.7743 8.01858 97.7743 8.13558V8.90258C97.7743 9.01358 97.8643 9.10358 97.9753 9.10358H99.0153C99.1323 9.10358 99.2263 9.00758 99.2263 8.88958V8.09158C99.2263 8.00158 99.3003 7.92758 99.3913 7.92758H101.508C101.556 7.92758 101.595 7.96558 101.595 8.01358C101.595 8.02758 101.592 8.04258 101.585 8.05458L100.477 10.1686C100.429 10.2586 100.336 10.3146 100.235 10.3146H94.6173C91.0103 10.3126 89.1383 10.3116 88.9993 10.3116C88.8983 10.3116 88.8053 10.2556 88.7573 10.1656L87.6493 8.05158C87.6263 8.00958 87.6433 7.95658 87.6853 7.93458C87.6993 7.92758 87.7143 7.92358 87.7293 7.92458H89.8463C89.9363 7.92658 90.0083 7.99958 90.0083 8.08858V8.88658C90.0083 9.00458 90.1023 9.10058 90.2193 9.10058H91.2593C91.3703 9.10058 91.4603 9.01058 91.4603 8.89858V8.13258C91.4603 8.01558 91.5553 7.92158 91.6713 7.92158H91.6743L93.6613 7.92458C93.7803 7.92658 93.8753 8.02258 93.8753 8.14158V8.88358C93.8753 9.00058 93.9683 9.09458 94.0833 9.09458H94.6173Z" fill="#00003D"/>
<path d="M90.5108 11.3853H98.7118C98.7748 11.3853 98.8258 11.4363 98.8258 11.5003V17.2233C98.8258 17.2873 98.7748 17.3383 98.7118 17.3383H90.5108C90.4478 17.3383 90.3958 17.2873 90.3958 17.2233V11.5003C90.3958 11.4363 90.4478 11.3853 90.5108 11.3853Z" fill="#00003D"/>
<path d="M17.1068 13.8529H20.7348C20.8058 13.8529 20.8628 13.9099 20.8628 13.9799V17.2239C20.8628 17.2939 20.9198 17.3509 20.9898 17.3509H30.8758C30.9458 17.3509 31.0028 17.4079 31.0028 17.4779V20.5699C31.0028 20.5869 30.9998 20.6039 30.9938 20.6189L26.1768 32.2059C26.1568 32.2529 26.1118 32.2829 26.0618 32.2839H21.9958C21.9248 32.2829 21.8688 32.2249 21.8708 32.1539C21.8708 32.1379 21.8738 32.1219 21.8808 32.1069L26.3188 21.4199C26.3468 21.3559 26.3168 21.2809 26.2518 21.2529C26.2368 21.2469 26.2208 21.2439 26.2048 21.2429H17.1068C17.0368 21.2429 16.9798 21.1859 16.9798 21.1159V13.9799C16.9798 13.9099 17.0368 13.8529 17.1068 13.8529Z" fill="#00003D"/>
<path d="M32.5393 21.1377V17.4567C32.5393 17.3977 32.5863 17.3507 32.6453 17.3507H46.4543C46.5123 17.3507 46.5593 17.3977 46.5593 17.4567V21.1407C46.5593 21.1987 46.5123 21.2467 46.4543 21.2467H44.2473C44.1893 21.2467 44.1413 21.2937 44.1413 21.3517V32.1817C44.1413 32.2397 44.0943 32.2867 44.0363 32.2867H40.3023C40.2443 32.2867 40.1963 32.2397 40.1963 32.1817V22.5407C40.1963 22.5127 40.2083 22.4857 40.2273 22.4657L41.2733 21.4237C41.3143 21.3817 41.3143 21.3147 41.2733 21.2737C41.2533 21.2547 41.2273 21.2437 41.1993 21.2437H32.6453C32.5863 21.2437 32.5393 21.1957 32.5393 21.1377Z" fill="#00003D"/>
<path d="M57.9261 32.2838H54.7911C54.6971 32.2838 54.6131 32.2228 54.5831 32.1318L53.7361 29.4938C53.7141 29.4208 53.6381 29.3808 53.5651 29.4028C53.5181 29.4168 53.4831 29.4548 53.4721 29.5028C53.1581 30.8068 52.2551 32.2498 50.7561 32.2678C49.4341 32.2868 48.2491 32.2898 47.2021 32.2778C47.0921 32.2758 47.0031 32.1858 47.0031 32.0758V28.4688C47.0031 28.4108 47.0511 28.3638 47.1091 28.3638C48.5881 28.3678 49.6321 28.3728 50.2411 28.3788C52.1841 28.4008 52.8851 27.2558 52.5381 25.5108C52.1861 23.7438 51.9191 22.3648 51.7371 21.3738C51.7221 21.2998 51.6571 21.2468 51.5821 21.2468H48.7511C48.6511 21.2468 48.5711 21.1658 48.5711 21.0668V17.5278C48.5711 17.4288 48.6501 17.3478 48.7481 17.3478H54.8351C54.9321 17.3478 55.0161 17.4158 55.0361 17.5128L58.0941 32.0758C58.1121 32.1698 58.0531 32.2618 57.9611 32.2808C57.9491 32.2828 57.9381 32.2838 57.9261 32.2838Z" fill="#00003D"/>
<path d="M94.6235 18.369C98.2845 18.367 100.287 18.363 100.63 18.357C100.685 18.355 100.73 18.399 100.732 18.454C100.732 18.471 100.728 18.487 100.72 18.502L99.7015 20.439C99.5915 20.651 99.5335 20.887 99.5335 21.125V24.049C99.5335 24.167 99.4405 24.263 99.3225 24.266C99.1655 24.268 97.5995 24.271 94.6235 24.273C91.6495 24.273 90.0845 24.272 89.9275 24.269C89.8095 24.266 89.7165 24.17 89.7165 24.052L89.7135 21.128C89.7135 20.89 89.6555 20.654 89.5455 20.442L88.5245 18.509C88.4965 18.461 88.5135 18.4 88.5605 18.373C88.5765 18.364 88.5955 18.359 88.6145 18.36C88.9575 18.366 90.9605 18.369 94.6235 18.369Z" fill="#00003D"/>
<path d="M94.6328 25.3156C95.1668 25.3156 95.5088 25.3216 95.6598 25.3346C95.7638 25.3426 95.8438 25.4286 95.8438 25.5326V26.2776C95.8438 26.3976 95.9408 26.4946 96.0608 26.4946H97.0878C97.2118 26.4946 97.3118 26.3946 97.3118 26.2716V25.4676C97.3118 25.3806 97.3828 25.3096 97.4698 25.3096H99.5398C99.6288 25.3096 99.7018 25.3816 99.7018 25.4706V26.2686C99.7018 26.3936 99.8038 26.4946 99.9308 26.4946H100.965C101.083 26.4946 101.179 26.3976 101.179 26.2776V25.4836C101.179 25.3886 101.257 25.3126 101.353 25.3126H103.768C103.831 25.3126 103.883 25.3636 103.883 25.4266C103.883 25.4456 103.879 25.4636 103.87 25.4806L100.915 31.1106C100.871 31.1936 100.785 31.2446 100.692 31.2436C99.3588 31.2336 97.3398 31.2286 94.6328 31.2286C91.9238 31.2286 89.9038 31.2336 88.5708 31.2436C88.4788 31.2436 88.3938 31.1926 88.3508 31.1106L85.3958 25.4806C85.3668 25.4236 85.3888 25.3546 85.4448 25.3256C85.4608 25.3166 85.4798 25.3126 85.4978 25.3126H87.9128C88.0088 25.3126 88.0868 25.3886 88.0868 25.4836V26.2776C88.0868 26.3976 88.1828 26.4946 88.3008 26.4946H89.3348C89.4608 26.4946 89.5638 26.3936 89.5638 26.2686V25.4706C89.5638 25.3816 89.6368 25.3096 89.7258 25.3096H91.7958C91.8828 25.3096 91.9538 25.3806 91.9538 25.4676V26.2716C91.9538 26.3946 92.0538 26.4946 92.1778 26.4946H93.2048C93.3248 26.4946 93.4218 26.3976 93.4218 26.2776V25.5326C93.4218 25.4296 93.4998 25.3436 93.6018 25.3346C93.7538 25.3216 94.0968 25.3156 94.6328 25.3156Z" fill="#00003D"/>
<path d="M94.6235 32.3241C98.5425 32.3241 100.573 32.3261 100.714 32.3301C100.781 32.3321 100.835 32.3871 100.835 32.4541V38.0411C100.835 38.1391 100.756 38.2181 100.658 38.2181H95.9985C95.9085 38.2181 95.8345 38.1471 95.8305 38.0571C95.8305 38.0551 95.8345 37.3211 95.8405 35.8561C95.8435 35.1051 95.3465 34.6431 94.6235 34.6431C93.9005 34.6401 93.4035 35.1051 93.4065 35.8561C93.4125 37.3211 93.4165 38.0551 93.4165 38.0571C93.4125 38.1471 93.3385 38.2181 93.2485 38.2181H88.5895C88.4915 38.2181 88.4125 38.1391 88.4125 38.0411V32.4541C88.4125 32.3861 88.4685 32.3301 88.5365 32.3301C88.6775 32.3261 90.7065 32.3241 94.6235 32.3241Z" fill="#00003D"/>
<path d="M58.6679 38.4978C58.6709 38.3818 58.7659 38.2898 58.8819 38.2898H59.8129C59.9469 38.2898 60.0549 38.3978 60.0549 38.5318V38.5348C60.0469 39.7658 60.0779 40.9378 60.1489 42.0488C60.2139 43.1068 60.8779 43.9388 62.0229 43.8798C63.9789 43.7778 63.9969 41.4988 63.5539 40.0998C63.4559 39.7938 63.1829 39.5778 62.8639 39.5528C62.5439 39.5308 62.1899 39.5748 61.8029 39.6868C61.6549 39.7288 61.4979 39.6648 61.4209 39.5318C61.1439 39.0518 61.1819 38.7248 61.5359 38.5508C65.6609 36.5328 66.0989 42.8618 64.0319 44.5508C63.0879 45.3218 61.9829 45.5018 60.7169 45.0908C59.5969 44.7258 58.9339 43.8258 58.7269 42.3898C58.6169 41.6268 58.5979 40.3288 58.6679 38.4978Z" fill="#3D63D4"/>
<path d="M0.944813 38.2743C1.78081 38.2763 2.85981 38.2753 4.18181 38.2713C6.64981 38.2623 6.90381 39.2953 6.89181 41.3653C6.88781 42.2823 6.87781 43.4993 6.86081 45.0163C6.85881 45.1123 6.78081 45.1893 6.68381 45.1893H0.978813C0.870813 45.1893 0.783813 45.1023 0.783813 44.9943V38.4393C0.783813 38.3483 0.855813 38.2743 0.944813 38.2743ZM2.44381 43.8643L5.23081 43.8393C5.35481 43.8383 5.45381 43.7363 5.45181 43.6133L5.42381 40.1803C5.41981 39.8513 5.18081 39.5873 4.88981 39.5903L2.71081 39.6093C2.41981 39.6123 2.18581 39.8813 2.18981 40.2103V40.2113L2.21781 43.6443C2.21881 43.7673 2.32081 43.8663 2.44381 43.8643Z" fill="#3D63D4"/>
<path d="M9.01802 39.6618L8.38802 39.6808C8.22702 39.6878 8.09102 39.5628 8.08402 39.4018C8.08402 39.3998 8.08402 39.3978 8.08402 39.3978L8.06802 38.5448C8.06502 38.3968 8.18102 38.2748 8.32902 38.2718C8.33102 38.2708 8.33302 38.2708 8.33502 38.2708L10.421 38.2618C10.535 38.2598 10.629 38.3498 10.632 38.4638L10.728 42.4028C10.733 42.6108 10.57 42.7838 10.362 42.7908L9.58602 42.8118C9.37202 42.8178 9.19402 42.6498 9.18902 42.4368C9.18902 42.4318 9.18902 42.4268 9.18902 42.4208L9.22002 39.8538C9.22202 39.7498 9.13702 39.6638 9.03102 39.6618C9.02702 39.6618 9.02202 39.6618 9.01802 39.6618Z" fill="#3D63D4"/>
<path d="M12.4633 39.6555H12.2403C12.0703 39.6555 11.9323 39.5175 11.9323 39.3485V38.5695C11.9323 38.4185 12.0553 38.2965 12.2053 38.2965C13.7863 38.3065 14.6513 38.3085 14.8003 38.3025C16.7653 38.2375 18.3203 38.6625 18.6803 40.7175C19.0123 42.6255 18.2643 45.0655 15.9833 45.2545C13.8583 45.4285 12.6293 44.4185 12.2953 42.2255C12.2233 41.7415 12.3423 40.9695 12.6523 39.9105C12.6833 39.8045 12.6233 39.6945 12.5183 39.6635C12.5003 39.6585 12.4813 39.6555 12.4633 39.6555ZM17.4083 41.4095C17.3113 39.5565 15.9363 39.6125 14.2423 39.6275C14.1083 39.6275 13.9893 39.7125 13.9473 39.8385C13.4253 41.3845 13.4413 44.3545 15.9243 43.8925C17.0913 43.6785 17.4633 42.4805 17.4083 41.4095Z" fill="#3D63D4"/>
<path d="M34.5351 41.2137L35.3261 41.3227C35.4171 41.3357 35.4911 41.3997 35.5161 41.4867C35.6031 41.8057 35.6031 42.0557 35.5161 42.2377C35.4711 42.3297 35.3841 42.3947 35.2831 42.4117C34.0411 42.6387 32.8311 42.1857 32.7561 40.7297C32.7171 39.9827 32.7771 39.2177 32.9371 38.4357C32.9581 38.3337 33.0461 38.2587 33.1511 38.2557C35.9691 38.1627 38.6541 37.9267 38.8251 41.5057C38.9551 44.2057 37.0801 45.3107 34.5691 45.2797C34.1161 45.2737 33.6661 45.2697 33.2191 45.2677C32.9981 45.2677 32.8191 45.0877 32.8191 44.8667V44.0597C32.8191 43.8917 32.9561 43.7567 33.1241 43.7577C33.1411 43.7577 33.1591 43.7587 33.1751 43.7617C34.5851 44.0007 37.0401 44.0727 37.3411 42.2287C37.4381 41.6427 37.3891 41.0617 37.1921 40.4847C36.8161 39.3857 35.3231 39.5437 34.3361 39.5567C34.2341 39.5567 34.1491 39.6317 34.1351 39.7327C34.0441 40.4287 34.1221 40.8947 34.3701 41.1327C34.4151 41.1757 34.4721 41.2037 34.5351 41.2137Z" fill="#3D63D4"/>
<path d="M42.1521 45.2519H41.1401C41.0051 45.2519 40.8951 45.1419 40.8951 45.0069V39.9159C40.8951 39.7809 40.7851 39.6709 40.6501 39.6709H40.0291C39.8941 39.6709 39.7841 39.5609 39.7841 39.4259V38.5319C39.7841 38.3969 39.8941 38.2869 40.0291 38.2869H42.1521C42.2871 38.2869 42.3971 38.3969 42.3971 38.5319V45.0069C42.3971 45.1419 42.2871 45.2519 42.1521 45.2519Z" fill="#3D63D4"/>
<path d="M47.3108 38.3023C49.6348 38.2853 51.0498 38.3133 51.5568 38.3863C53.1178 38.6063 53.1248 40.0933 53.1208 41.4873V44.9693C53.1208 45.0933 53.0228 45.1933 52.9008 45.1933H51.9448C51.8248 45.1933 51.7278 45.0943 51.7278 44.9723C51.7338 43.3873 51.7308 41.9243 51.7188 40.5833C51.7118 39.9813 51.4238 39.6683 50.8528 39.6433C50.2028 39.6163 49.4758 39.6213 48.6738 39.6583C48.5578 39.6653 48.4688 39.7603 48.4688 39.8763V44.9823C48.4688 45.1033 48.3688 45.2023 48.2448 45.2023H47.2678C47.1578 45.2023 47.0688 45.1133 47.0688 45.0033V38.5473C47.0688 38.4123 47.1768 38.3023 47.3108 38.3023Z" fill="#3D63D4"/>
<path d="M56.6039 38.2557C56.7809 38.2537 56.9249 38.3957 56.9269 38.5727C56.9269 38.5747 56.9269 38.5767 56.9269 38.5787L56.9919 44.9007C56.9939 45.0987 56.8339 45.2607 56.6349 45.2647L55.7909 45.2767C55.6059 45.2817 55.4519 45.1347 55.4459 44.9477C55.4459 44.9447 55.4459 44.9417 55.4459 44.9387L55.4519 39.8547C55.4539 39.7427 55.3659 39.6507 55.2539 39.6487C55.2489 39.6487 55.2439 39.6487 55.2379 39.6497L54.6269 39.6837C54.4729 39.6907 54.3419 39.5727 54.3349 39.4197C54.3349 39.4177 54.3349 39.4157 54.3349 39.4137L54.3129 38.5787C54.3099 38.4157 54.4379 38.2807 54.5989 38.2777C54.6009 38.2777 54.6029 38.2777 54.6049 38.2777L56.6039 38.2557Z" fill="#3D63D4"/>
<path d="M66.4245 38.265H68.5105C68.6495 38.265 68.7615 38.378 68.7615 38.516V42.533C68.7615 42.672 68.6495 42.784 68.5105 42.784H67.5355C67.3965 42.784 67.2845 42.672 67.2845 42.533V39.913C67.2845 39.774 67.1715 39.662 67.0325 39.662H66.4245C66.2855 39.662 66.1735 39.549 66.1735 39.41V38.516C66.1735 38.378 66.2855 38.265 66.4245 38.265Z" fill="#3D63D4"/>
<path d="M75.6494 45.2364H70.2054C70.0494 45.2364 69.9224 45.1104 69.9224 44.9544V44.0224C69.9224 43.8844 70.0354 43.7714 70.1744 43.7714H73.5144C73.6254 43.7714 73.7174 43.6814 73.7184 43.5694C73.7434 42.3844 73.7324 41.3334 73.6844 40.4194C73.6594 39.9124 73.3414 39.6554 72.7284 39.6494C71.7854 39.6394 71.0164 39.6484 70.4224 39.6774C70.2414 39.6854 70.0864 39.5444 70.0784 39.3614C70.0784 39.3554 70.0784 39.3504 70.0784 39.3454V38.6124C70.0774 38.4414 70.2164 38.3024 70.3884 38.3024C70.3904 38.3024 70.3924 38.3024 70.3944 38.3024C71.1854 38.3214 71.9664 38.3174 72.7384 38.2934C74.2384 38.2434 75.0214 38.9504 75.0874 40.4134C75.1514 41.8204 75.1574 42.8694 75.1034 43.5604C75.0924 43.6784 75.1804 43.7824 75.2974 43.7924C75.3044 43.7924 75.3104 43.7934 75.3174 43.7934H75.6064C75.7514 43.7934 75.8694 43.9114 75.8694 44.0574V45.0194C75.8694 45.1394 75.7714 45.2364 75.6494 45.2364Z" fill="#3D63D4"/>
<path d="M19.7606 44.9632L19.7666 44.0442C19.7696 43.9172 19.8746 43.8172 20.0006 43.8192C20.0156 43.8192 20.0296 43.8212 20.0426 43.8242C20.2316 43.8652 20.5266 43.8472 20.9276 43.7682C21.3116 43.6902 21.5876 43.3542 21.5886 42.9642L21.6106 39.8232C21.6126 39.7032 21.5166 39.6042 21.3966 39.6032H21.3936L20.4036 39.5962C20.2296 39.5962 20.0896 39.4572 20.0896 39.2862L20.0956 38.6002C20.0976 38.4592 20.2126 38.3452 20.3536 38.3452L22.7306 38.3612C22.8426 38.3612 22.9326 38.4512 22.9326 38.5632C22.9286 40.2392 22.9366 41.5672 22.9576 42.5482C23.0046 44.6312 22.0486 45.3352 20.0396 45.2582C19.8836 45.2512 19.7606 45.1212 19.7606 44.9632Z" fill="#3D63D4"/>
<path d="M24.4878 43.8396C24.6758 43.8806 24.9708 43.8606 25.3728 43.7776C25.7558 43.6976 26.0308 43.3606 26.0308 42.9706V39.8236C26.0308 39.7036 25.9328 39.6056 25.8128 39.6056H24.8198C24.6468 39.6056 24.5068 39.4666 24.5068 39.2956V38.6096C24.5068 38.4676 24.6218 38.3516 24.7638 38.3516H27.1448C27.2558 38.3516 27.3468 38.4426 27.3468 38.5536C27.3528 40.2316 27.3708 41.5626 27.3988 42.5456C27.4578 44.6276 26.5058 45.3416 24.4938 45.2766C24.3368 45.2716 24.2118 45.1416 24.2118 44.9816V44.0626C24.2128 43.9366 24.3158 43.8336 24.4428 43.8346C24.4578 43.8346 24.4728 43.8366 24.4878 43.8396Z" fill="#3D63D4"/>
<path d="M29.5596 39.6649L28.9486 39.6739C28.7926 39.6779 28.6626 39.5539 28.6596 39.3979C28.6596 39.3959 28.6596 39.3939 28.6596 39.3919L28.6566 38.5659C28.6546 38.4239 28.7686 38.3069 28.9106 38.3049C28.9136 38.3049 28.9166 38.3049 28.9206 38.3059L30.9406 38.3299C31.0496 38.3319 31.1376 38.4199 31.1396 38.5289L31.1706 42.3469C31.1726 42.5489 31.0096 42.7139 30.8076 42.7159L30.0566 42.7249C29.8486 42.7269 29.6796 42.5619 29.6776 42.3559C29.6776 42.3509 29.6776 42.3459 29.6776 42.3409L29.7486 39.8539C29.7526 39.7529 29.6716 39.6689 29.5696 39.6649C29.5656 39.6649 29.5626 39.6649 29.5596 39.6649Z" fill="#3D63D4"/>
<path d="M59.4471 32.0789C59.4641 31.8349 59.8031 29.6509 60.4651 25.5269C60.6411 24.4279 60.9051 23.4609 61.2571 22.6249C61.2951 22.5319 61.2831 22.4259 61.2261 22.3449L57.7961 17.5779C57.7491 17.5119 57.7651 17.4209 57.8311 17.3739C57.8551 17.3569 57.8841 17.3479 57.9141 17.3479H62.2001C62.3681 17.3479 62.5251 17.4279 62.6221 17.5619L63.4941 18.7759C63.5771 18.8899 63.7361 18.9149 63.8501 18.8329C63.8561 18.8279 63.8611 18.8239 63.8671 18.8189C66.2071 16.8389 69.2031 16.5749 71.8911 17.8849C76.7921 20.2719 77.1731 27.8079 72.9521 31.0299C71.2011 32.3609 68.6191 32.7989 66.4461 32.4199C66.2781 32.3919 66.1551 32.2459 66.1551 32.0759L66.1611 28.7239C66.1621 28.6689 66.2061 28.6249 66.2591 28.6249C66.2721 28.6249 66.2851 28.6279 66.2971 28.6339C66.2991 28.6359 66.6481 28.6969 67.3431 28.8169C69.6651 29.2199 71.7661 27.4819 71.9061 25.1949C72.0301 23.0839 70.8661 21.1439 68.6221 21.0229C65.9901 20.8799 64.8261 23.3819 64.4441 25.6169C64.4221 25.7449 64.0451 27.9079 63.3141 32.1069C63.2961 32.2109 63.2061 32.2869 63.1001 32.2869H59.6391C59.5331 32.2869 59.4471 32.2009 59.4461 32.0949C59.4461 32.0899 59.4471 32.0839 59.4471 32.0789Z" fill="#00003D"/>
</svg>
