<svg width="163" height="117" viewBox="0 0 163 117" fill="none" xmlns="http://www.w3.org/2000/svg">
<path d="M5.97846 61.1213L1.83789 62.4656L1.492 61.4003L5.64408 60.0522C6.35049 59.8229 6.80285 59.5169 7.00114 59.1342C7.20068 58.7554 7.1864 58.2147 6.9583 57.5121L6.08703 54.8285L7.06602 54.5107L7.9429 57.2115C8.17225 57.9179 8.25753 58.5205 8.19874 59.0191C8.14379 59.5165 7.93373 59.9348 7.56856 60.2741C7.20722 60.612 6.67719 60.8945 5.97846 61.1213ZM4.97116 56.4894L0.381415 57.9795L0.0373945 56.9199L4.62714 55.4298L4.97116 56.4894Z" fill="#4D4D4F"/>
<path d="M10.2659 66.1428L4.34146 68.5634L3.91781 67.5265L9.84221 65.1059L8.2392 61.1825L9.19203 60.7932L11.5691 66.6111L10.6162 67.0004L10.2659 66.1428Z" fill="#4D4D4F"/>
<path d="M12.3663 67.9083L8.86907 69.6462L8.3733 68.6485L11.8706 66.9106L12.3663 67.9083Z" fill="#4D4D4F"/>
<path d="M12.7246 74.9729L8.92477 77.0972L8.3782 76.1195L12.1887 73.9893C12.8299 73.6309 13.2133 73.2454 13.3388 72.833C13.4663 72.4242 13.3489 71.8956 12.9865 71.2473L11.8786 69.2655L12.777 68.7632L13.8908 70.7556C14.2532 71.4039 14.4541 71.9783 14.4935 72.4789C14.5364 72.9775 14.4117 73.4287 14.1195 73.8325C13.8308 74.2343 13.3659 74.6145 12.7246 74.9729Z" fill="#4D4D4F"/>
<path d="M15.6185 79.7164C16.2557 79.2969 16.639 78.8441 16.7684 78.3578C16.8977 77.8716 16.7649 77.3284 16.3699 76.7283L15.4511 75.3324L13.7012 76.4842L14.5101 77.7132L13.6504 78.2791L12.2189 76.1044L15.6883 73.8208L17.2363 76.1725C17.831 77.0761 18.0468 77.8957 17.8835 78.6314C17.7258 79.3682 17.1715 80.0496 16.2207 80.6754L15.806 80.9484C13.7965 82.2711 12.166 81.9816 10.9143 80.08L9.51949 77.961L10.3793 77.3951L11.7907 79.5394C12.2124 80.18 12.7012 80.5372 13.2572 80.611C13.8165 80.6826 14.4553 80.482 15.1734 80.0093L15.6185 79.7164Z" fill="#4D4D4F"/>
<path d="M22.8233 83.4182L19.8412 85.9397L19.1219 85.089L22.104 82.5675L22.8233 83.4182Z" fill="#4D4D4F"/>
<path d="M24.8685 90.1742L21.6821 93.1404L20.9189 92.3206L24.1141 89.3461C24.6518 88.8455 24.9326 88.38 24.9566 87.9496C24.9833 87.5222 24.7437 87.0366 24.2376 86.493L22.6905 84.8312L23.4439 84.1298L24.9992 85.8006C25.5053 86.3442 25.8369 86.8544 25.9941 87.3313C26.1542 87.8054 26.1403 88.2733 25.9524 88.735C25.7675 89.1939 25.4062 89.6736 24.8685 90.1742Z" fill="#4D4D4F"/>
<path d="M29.3884 94.1546C29.876 93.6051 30.1112 93.1149 30.0941 92.6842C30.08 92.2562 29.7951 91.7957 29.2396 91.3027L27.8357 90.057L23.588 94.8439L22.7547 94.1045L27.6855 88.5477L29.9318 90.5409C30.7651 91.2803 31.2034 91.9875 31.2465 92.6626C31.2897 93.3377 30.9469 94.0858 30.2182 94.9071L27.3289 98.1633L26.491 97.4199L29.3884 94.1546Z" fill="#4D4D4F"/>
<path d="M30.5359 97.503L28.6669 99.1447L27.7347 98.43L29.6082 96.8223C30.146 96.3597 30.5488 96.0532 30.8169 95.9026C31.0873 95.7489 31.3487 95.6568 31.6009 95.6264C31.8563 95.5984 32.1454 95.6293 32.4682 95.7191L32.5384 92.7517L33.6291 93.5879L33.5085 98.2333C33.9206 98.1932 34.3187 98.0687 34.7028 97.8596C35.0926 97.6498 35.4683 97.3555 35.8299 96.9766L36.762 95.9898L37.6749 96.6898L36.7576 97.6574C36.4522 97.9827 36.1512 98.2427 35.8544 98.4374C35.6504 98.5708 35.4396 98.6865 35.2222 98.7843C35.0073 98.8789 34.7618 98.9602 34.4858 99.0284C34.213 99.0989 33.8825 99.1584 33.4945 99.2068L33.4719 102.829L32.3475 101.967L32.4519 96.5763C32.0998 96.5048 31.7514 96.581 31.4068 96.805C31.3133 96.8606 31.1937 96.9469 31.048 97.064C30.9054 97.1836 30.7347 97.3299 30.5359 97.503Z" fill="#4D4D4F"/>
<path d="M45.5118 104.702L43.3876 108.502L37.8331 105.397L41.4581 98.9126L44.2961 100.499C45.2685 101.043 45.8482 101.64 46.0351 102.29C46.2219 102.94 46.0475 103.744 45.5118 104.702ZM39.3077 105.042L42.9121 107.057L44.5399 104.145C44.8984 103.504 45.0231 102.975 44.914 102.558C44.8085 102.143 44.4316 101.754 43.7833 101.392L41.9283 100.355L39.3077 105.042Z" fill="#4D4D4F"/>
<path d="M48.1123 102.379C48.4304 102.528 48.6782 102.674 48.8554 102.82C49.038 102.963 49.1636 103.133 49.2321 103.329C49.3023 103.523 49.3288 103.771 49.3117 104.075C49.3068 104.229 49.2777 104.458 49.2245 104.763C49.173 105.064 49.0983 105.443 49.0004 105.901L48.0031 110.527L47.0046 110.061L47.6757 107.006C47.3326 106.94 47.0641 106.928 46.8703 106.971C46.6801 107.016 46.4889 107.125 46.2967 107.298C46.1996 107.382 46.089 107.499 45.9648 107.651C45.846 107.8 45.7136 107.979 45.5675 108.187L44.9254 109.09L43.8885 108.606L44.5467 107.697C44.834 107.301 45.0821 106.989 45.2909 106.762C45.505 106.532 45.7172 106.364 45.9274 106.257C46.0984 106.167 46.2846 106.107 46.486 106.077C46.6891 106.042 46.9548 106.051 47.283 106.101L47.8514 106.186C47.941 105.756 48.0117 105.395 48.0634 105.103C48.1169 104.807 48.1514 104.58 48.1671 104.423C48.1984 104.108 48.1821 103.871 48.1182 103.712C48.0544 103.553 47.9182 103.424 47.7097 103.327L46.9691 102.981L47.4045 102.049L48.1123 102.379Z" fill="#4D4D4F"/>
<path d="M59.6239 109.908L58.2797 114.049L57.2143 113.703L58.5623 109.551C58.7916 108.844 58.8097 108.298 58.6165 107.913C58.4271 107.529 57.9811 107.223 57.2786 106.995L54.595 106.124L54.9128 105.145L57.6137 106.022C58.3201 106.251 58.8578 106.536 59.2268 106.876C59.5971 107.213 59.8122 107.629 59.8723 108.124C59.9336 108.615 59.8508 109.209 59.6239 109.908ZM55.2837 108.002L53.7936 112.592L52.734 112.248L54.224 107.658L55.2837 108.002Z" fill="#4D4D4F"/>
<path d="M65.1162 111.818C64.6045 114.169 63.2364 115.102 61.012 114.618L59.1247 114.207L59.3437 113.201L61.2546 113.617C62.0079 113.781 62.6095 113.693 63.0594 113.353C63.5094 113.013 63.8253 112.425 64.0074 111.589L64.0576 111.358C64.2405 110.518 64.1956 109.851 63.9229 109.358C63.655 108.862 63.1463 108.532 62.397 108.369L60.486 107.953L60.705 106.948L62.5922 107.358C64.8167 107.843 65.6731 109.26 65.1613 111.611L65.1162 111.818Z" fill="#4D4D4F"/>
<path d="M67.8088 108.373L67.1705 112.225L66.0714 112.043L66.7097 108.19L67.8088 108.373Z" fill="#4D4D4F"/>
<path d="M74.6211 115.862C74.3272 116.023 73.9681 116.143 73.5436 116.223C73.1231 116.303 72.6008 116.343 71.9766 116.345C71.3524 116.346 70.5837 116.31 69.6703 116.237L68.9215 108.652L70.0734 108.754L70.4773 112.625L70.925 112.58C71.1713 112.545 71.3767 112.49 71.5414 112.416C71.7064 112.337 71.8424 112.22 71.9496 112.063C72.0374 111.941 72.1098 111.788 72.1668 111.602C72.2237 111.417 72.2739 111.194 72.3172 110.935L72.6426 108.982L73.7884 109.084L73.4258 111.045C73.3681 111.377 73.3082 111.663 73.2462 111.905C73.1846 112.142 73.119 112.333 73.0495 112.477C72.9222 112.769 72.7507 112.989 72.5351 113.136C72.3197 113.279 71.9734 113.392 71.4959 113.476L70.5725 113.606L70.7299 115.189L70.8746 115.201C71.6827 115.273 72.3342 115.284 72.8289 115.235C73.324 115.182 73.7211 115.067 74.0204 114.891C74.2215 114.771 74.3953 114.616 74.5419 114.427C74.6884 114.237 74.8205 113.982 74.9382 113.66C75.0559 113.338 75.168 112.92 75.2744 112.407L75.9355 109.274L77.0994 109.378L76.4361 112.468C76.2935 113.16 76.1377 113.728 75.9687 114.171C75.8001 114.609 75.6068 114.961 75.3888 115.225C75.1752 115.486 74.9193 115.698 74.6211 115.862Z" fill="#4D4D4F"/>
<path d="M81.228 109.18C82.2048 109.167 82.9209 109.457 83.3765 110.049C83.8361 110.636 84.074 111.578 84.0904 112.874L84.1388 116.694L80.4941 116.74L80.4811 115.711L82.9997 115.679L82.9661 113.027C82.9536 112.038 82.8174 111.321 82.5574 110.877C82.2975 110.432 81.8628 110.213 81.2533 110.221C80.7084 110.228 80.2635 110.48 79.9186 110.977C79.5698 111.482 79.2559 112.356 78.9769 113.598L78.2601 116.768L77.0614 116.783L77.8497 113.522C77.9377 113.141 78.0282 112.797 78.1212 112.489C78.2142 112.181 78.3056 111.907 78.3954 111.668L76.8524 109.356L78.1661 109.34L78.9385 110.559C79.2473 110.079 79.5799 109.732 79.9365 109.517C80.293 109.299 80.7235 109.186 81.228 109.18Z" fill="#4D4D4F"/>
<path d="M88.4876 108.719C89.4606 108.633 90.1966 108.867 90.6957 109.423C91.1985 109.974 91.5072 110.895 91.6218 112.185L91.9598 115.991L88.3291 116.313L88.2381 115.288L90.747 115.065L90.5124 112.424C90.4249 111.439 90.2347 110.734 89.9418 110.31C89.6489 109.887 89.1988 109.702 88.5917 109.756C88.0489 109.804 87.6244 110.089 87.3182 110.61C87.0086 111.14 86.7619 112.035 86.578 113.296L86.1037 116.511L84.9096 116.617L85.4482 113.305C85.5071 112.919 85.5713 112.569 85.6406 112.254C85.71 111.94 85.7804 111.661 85.8518 111.415L84.1379 109.227L85.4466 109.111L86.3092 110.268C86.5807 109.766 86.886 109.394 87.2253 109.153C87.5642 108.909 87.985 108.764 88.4876 108.719Z" fill="#4D4D4F"/>
<path d="M98.645 113.404C98.6083 113.832 98.4664 114.17 98.2193 114.418C97.9712 114.661 97.5354 114.859 96.9119 115.011L96.8472 115.027L96.6032 114.027L96.7032 114.002C96.9738 113.936 97.177 113.833 97.3129 113.692C97.4449 113.551 97.5188 113.369 97.5348 113.145C97.5498 112.917 97.5051 112.589 97.4008 112.162L96.5123 108.521L95.3947 108.794L95.1507 107.794L99.0505 106.842C100.133 106.578 100.966 106.62 101.549 106.968C102.132 107.312 102.554 108.019 102.815 109.089L103.847 113.319L102.765 113.583L101.73 109.342C101.554 108.62 101.282 108.146 100.915 107.92C100.552 107.693 100.008 107.668 99.2828 107.845L97.5946 108.257L98.43 111.68C98.6061 112.402 98.6777 112.976 98.645 113.404Z" fill="#4D4D4F"/>
<path d="M103.701 105.445L105.995 112.511L104.936 112.855L102.642 105.789L103.701 105.445Z" fill="#4D4D4F"/>
<path d="M110.806 106.1L112.353 110.169L111.306 110.567L109.755 106.487C109.494 105.8 109.169 105.364 108.779 105.18C108.393 104.994 107.853 105.033 107.159 105.297L105.037 106.104L104.671 105.142L106.804 104.331C107.499 104.067 108.096 103.952 108.597 103.986C109.097 104.016 109.525 104.205 109.882 104.553C110.237 104.898 110.545 105.413 110.806 106.1Z" fill="#4D4D4F"/>
<path d="M111.191 102.499L114.168 109.305L113.148 109.752L110.17 102.946L111.191 102.499Z" fill="#4D4D4F"/>
<path d="M119.532 101.697L121.564 105.547L120.573 106.07L118.536 102.209C118.189 101.552 117.811 101.159 117.4 101.029C116.992 100.897 116.462 101.003 115.809 101.348L113.313 102.664L112.833 101.754L115.344 100.429C116.001 100.082 116.58 99.8954 117.082 99.8682C117.581 99.8374 118.029 99.973 118.426 100.275C118.821 100.573 119.189 101.047 119.532 101.697ZM115.14 103.48L117.392 107.748L116.407 108.268L114.155 104L115.14 103.48Z" fill="#4D4D4F"/>
<path d="M120.035 92.3324L128.189 104.72L127.619 105.096L119.465 92.7077L120.035 92.3324Z" fill="#4D4D4F"/>
<path d="M130.413 97.9804C130.548 98.4055 130.546 98.7986 130.406 99.1596C130.265 99.5175 129.945 99.8965 129.448 100.297L129.128 100.555L128.209 99.4136L128.289 99.349C128.506 99.1743 128.646 98.9942 128.709 98.8087C128.769 98.6257 128.758 98.4293 128.678 98.2197C128.594 98.0069 128.415 97.7292 128.139 97.3865L126.282 95.0806L125.386 95.8022L124.467 94.661L127.749 92.0178C128.654 91.2886 129.458 90.9575 130.16 91.0246C130.862 91.086 131.569 91.5583 132.28 92.4417L135.003 95.8227L133.725 96.8519L131.018 93.4898C130.613 92.9868 130.228 92.7185 129.864 92.6851C129.5 92.6516 129.076 92.8298 128.592 93.2197L127.555 94.0552L129.545 96.5261C129.983 97.07 130.272 97.5548 130.413 97.9804Z" fill="#4D4D4F"/>
<path d="M131.878 88.3528L136.998 93.8526L135.801 94.9664L130.682 89.4667L131.878 88.3528Z" fill="#4D4D4F"/>
<path d="M137.493 86.8977L140.751 90.0786L138.014 92.8814L136.966 91.8578L138.56 90.2246L136.576 88.2873C136.186 87.9066 135.882 87.6604 135.664 87.5489C135.449 87.4401 135.247 87.4125 135.059 87.4661C134.869 87.5169 134.659 87.6593 134.431 87.8932L133.927 88.4087L132.879 87.3851L133.598 86.6486C134.083 86.1519 134.512 85.8457 134.885 85.7299C135.257 85.6141 135.65 85.648 136.063 85.8314C136.476 86.0149 136.953 86.3703 137.493 86.8977Z" fill="#4D4D4F"/>
<path d="M137.044 82.9113L142.664 87.8983L141.579 89.1211L135.959 84.134L137.044 82.9113Z" fill="#4D4D4F"/>
<path d="M142.323 82.6075L145.143 84.8785L144.117 86.1517L141.288 83.8731C140.948 83.5996 140.716 83.306 140.59 82.9923C140.464 82.6729 140.457 82.3076 140.571 81.8963L138.722 83.0817L137.487 82.0867L141.085 79.7912L142.315 80.7825L141.736 81.1635C141.672 81.4691 141.677 81.7196 141.753 81.9153C141.828 82.1312 142.018 82.3619 142.323 82.6075Z" fill="#4D4D4F"/>
<path d="M143.192 74.602C143.758 73.7422 144.422 73.2832 145.186 73.225C145.945 73.1645 146.86 73.4861 147.929 74.1896L151.12 76.2901L148.973 79.5522L147.749 78.7466L148.99 76.8602L147.129 75.6351C146.418 75.1669 145.852 74.9177 145.432 74.8877C145.011 74.8521 144.659 75.0484 144.378 75.4766C144.118 75.8711 144.097 76.333 144.314 76.8624C144.541 77.3985 145.05 78.0935 145.841 78.9475L147.901 81.1807L146.942 82.6372L144.772 80.2301C144.51 79.9372 144.28 79.6698 144.082 79.4281C143.886 79.1829 143.722 78.9645 143.593 78.7727L140.673 78.6487L141.669 77.1366L142.872 77.2471C142.695 76.8406 142.634 76.4043 142.689 75.9383C142.747 75.4688 142.915 75.0234 143.192 74.602Z" fill="#4D4D4F"/>
<path d="M151.691 66.1769C151.084 65.8752 150.593 65.7753 150.217 65.8773C149.839 65.9775 149.506 66.3168 149.218 66.8952L148.499 68.3429L153.915 71.0346L153.188 72.4986L146.459 69.1548L147.906 66.2431C148.438 65.1731 149.043 64.5119 149.723 64.2593C150.402 64.0013 151.241 64.1211 152.242 64.6186L156.141 66.5559L155.411 68.0253L151.691 66.1769Z" fill="#4D4D4F"/>
<path d="M150.081 61.2223L157.036 64.0643L156.418 65.5776L149.462 62.7357L150.081 61.2223Z" fill="#4D4D4F"/>
<path d="M158.986 58.9005C158.642 59.9602 158.144 60.6597 157.49 60.9993C156.833 61.3376 155.992 61.3403 154.967 61.0075L150.722 59.6296L151.227 58.0747L155.437 59.4415C156.009 59.6272 156.467 59.6402 156.812 59.4805C157.157 59.3208 157.416 58.9722 157.591 58.4347C157.718 58.0431 157.751 57.6867 157.69 57.3655C157.624 57.0431 157.427 56.7497 157.097 56.4855C156.763 56.2201 156.26 55.9783 155.588 55.7602C154.924 55.5445 154.404 55.4586 154.029 55.5024C153.651 55.5449 153.405 55.739 153.293 56.0845C153.184 56.4185 153.18 56.8034 153.281 57.2392L151.87 56.7811C151.772 56.3504 151.806 55.8798 151.972 55.3691C152.239 54.5476 152.699 54.0455 153.352 53.863C154.003 53.6753 154.918 53.7728 156.096 54.1555C157.486 54.6067 158.412 55.2128 158.873 55.9738C159.336 56.731 159.374 57.7066 158.986 58.9005Z" fill="#4D4D4F"/>
<path d="M153.216 51.1249L157.092 52.0708L156.705 53.659L152.828 52.7131L153.216 51.1249Z" fill="#4D4D4F"/>
<path d="M160.747 44.2984L162.186 44.5741L160.867 51.4543L159.428 51.1785L160.287 46.6949L157.659 46.1913C156.965 46.0584 156.455 46.0961 156.127 46.3046C155.8 46.5091 155.577 46.9246 155.457 47.5509L154.98 50.0366L153.541 49.7609L154.022 47.2514C154.244 46.0938 154.646 45.3017 155.23 44.875C155.813 44.4444 156.656 44.3347 157.759 44.5458L160.595 45.0893L160.747 44.2984Z" fill="#4D4D4F"/>
<path d="M148.472 34.118C148.472 15.275 133.197 0 114.354 0H45.1553C26.3133 0 11.0383 15.275 11.0383 34.118C11.0383 72.069 41.8043 102.835 79.7553 102.835C117.706 102.835 148.472 72.069 148.472 34.118ZM19.2093 59.475C19.2313 59.481 19.2483 59.494 19.2703 59.5C19.2603 59.529 19.2633 59.553 19.2533 59.582C19.2153 59.559 19.1643 59.528 19.1643 59.528C19.1643 59.528 19.1963 59.491 19.2093 59.475Z" fill="#508B58"/>
<path d="M60.3564 32.8576H61.7264C61.7924 33.2386 61.8414 33.5856 61.9124 33.9266C63.1424 39.7806 66.6024 43.9226 71.9524 46.3696C77.6224 48.9626 83.3424 48.7066 88.9354 45.9356C89.1924 45.8076 89.4304 45.6406 89.7014 45.4776C88.6394 45.3436 87.6074 45.3066 86.6224 45.0726C83.0924 44.2336 80.7564 41.1376 80.8494 37.5196C80.8574 37.1936 80.8854 36.8686 80.9104 36.5436C81.0724 34.4696 79.9244 33.0656 77.8574 32.8156C77.6234 32.7876 77.3864 32.7846 76.9804 32.7596C77.2404 32.5786 77.3714 32.4546 77.5264 32.3856C78.7804 31.8286 79.9224 31.1256 80.9404 30.1796C82.1904 29.0176 83.5174 28.9216 85.0384 29.7156C85.8994 30.1646 86.5654 30.8266 87.1404 31.5946C87.7274 32.3766 88.2934 33.1776 88.9264 33.9206C89.9534 35.1286 91.2324 35.9296 92.8214 36.2276C94.9564 36.6286 96.8654 35.8136 97.9834 33.9466C98.3144 33.3936 98.6004 32.8136 99.0094 32.0566C99.0824 32.4576 99.1514 32.6656 99.1534 32.8736C99.1804 35.7076 98.4294 38.3246 96.8724 40.6886C93.9414 45.1376 89.8094 47.9316 84.6444 49.0466C77.7494 50.5356 71.5154 49.0466 66.1944 44.3156C63.0534 41.5216 61.1864 37.9746 60.4394 33.8416C60.3874 33.5546 60.3884 33.2586 60.3564 32.8576ZM83.0444 32.4826C83.6204 32.4676 84.0704 32.0096 84.0464 31.4606C84.0204 30.8956 83.5374 30.4576 82.9834 30.4966C82.4364 30.5356 81.9974 31.0376 82.0304 31.5846C82.0644 32.1266 82.4814 32.4966 83.0444 32.4826Z" fill="white"/>
<path d="M74.8806 28.3004C74.4156 28.3754 73.9556 28.4234 73.5076 28.5254C71.4146 28.9994 70.4436 31.0504 71.4836 32.9184C71.9106 33.6874 72.4856 34.3834 73.0536 35.0624C74.0996 36.3104 75.2456 37.4784 76.2456 38.7614C77.1886 39.9714 78.0026 41.2844 78.8606 42.5604C79.0206 42.7984 79.1206 43.0764 79.3106 43.4614C78.4696 43.3814 77.7446 43.3304 77.0256 43.2394C76.3246 43.1514 75.6286 43.0214 74.8256 42.8934C75.2116 43.7564 75.9656 44.1784 76.4826 44.9084C76.0386 45.0654 75.6376 44.9274 75.2566 44.8924C73.0106 44.6824 70.9016 44.0384 69.0276 42.7534C66.2626 40.8574 64.7726 38.1964 64.4716 34.8814C64.2256 32.1804 64.6036 29.5634 65.7706 27.0914C66.1546 26.2774 66.6826 25.5684 67.4616 25.0774C68.7426 24.2694 70.2736 24.3514 71.2776 25.4634C72.2896 26.5864 73.4346 27.4774 74.7826 28.1304C74.8226 28.1494 74.8376 28.2214 74.8806 28.3004ZM70.2246 26.7854C70.2256 26.2194 69.8566 25.8454 69.2806 25.8284C68.6966 25.8104 68.2466 26.2214 68.2256 26.7914C68.2046 27.3584 68.6466 27.8074 69.2216 27.8044C69.7916 27.8024 70.2246 27.3624 70.2246 26.7854Z" fill="white"/>
<path d="M74.3792 12.7965C74.6212 13.2915 74.8612 13.7795 75.0992 14.2685C75.7262 15.5555 76.6822 16.4845 78.0712 16.8955C79.3922 17.2875 80.7102 17.2055 81.9952 16.7115C82.9532 16.3435 83.7602 15.7465 84.4492 14.9935C84.9292 14.4685 85.3852 13.9215 85.8552 13.3875C86.4522 12.7085 87.1612 12.1925 88.0202 11.8825C89.2502 11.4385 90.4062 11.5935 91.3122 12.5245C92.4032 13.6455 93.6192 14.5505 95.0482 15.2975C94.8402 15.3195 94.6322 15.3545 94.4232 15.3615C92.1212 15.4355 90.8512 17.0615 90.9962 18.9345C91.2702 22.4865 88.2212 25.3815 84.9262 25.7105C81.8792 26.0155 79.3892 24.8985 77.3632 22.7385C74.8482 20.0565 73.9632 16.7715 74.1402 13.1575C74.1442 13.0715 74.1822 12.9865 74.2122 12.9045C74.2212 12.8825 74.2602 12.8715 74.3792 12.7965ZM90.4262 13.8745C90.4002 13.3445 89.8692 12.8765 89.3402 12.9175C88.8352 12.9565 88.3862 13.4305 88.3862 13.9235C88.3862 14.4705 88.8802 14.9455 89.4232 14.9215C89.9712 14.8985 90.4522 14.3965 90.4262 13.8745Z" fill="white"/>
<path d="M63.5506 25.781C63.1866 25.471 62.8546 25.187 62.5256 24.906C64.7666 21.781 69.8926 20.558 73.2886 22.673C73.0716 23.041 72.8546 23.412 72.6456 23.768C68.3326 22.594 66.7526 22.938 63.5506 25.781Z" fill="white"/>
<path d="M45.8527 59.6905V72.9996H44.6699L36.8067 61.8545H36.7027V72.9996H35.4874V59.6905H36.6637L44.553 70.8486H44.6569V59.6905H45.8527ZM50.8208 72.9996V59.6905H58.5411V60.7823H52.0361V65.7927H58.1317V66.8844H52.0361V71.9078H58.6711V72.9996H50.8208ZM70.3426 63.0178C70.2689 62.2769 69.9418 61.6877 69.3613 61.2502C68.7807 60.8126 68.0507 60.5938 67.1713 60.5938C66.5517 60.5938 66.0059 60.7 65.5336 60.9122C65.0657 61.1245 64.6975 61.4191 64.4289 61.7961C64.1646 62.1686 64.0324 62.5932 64.0324 63.0698C64.0324 63.4207 64.1083 63.7283 64.2599 63.9926C64.4115 64.2568 64.6152 64.4843 64.8708 64.6749C65.1307 64.8612 65.4166 65.0215 65.7286 65.1558C66.0448 65.2901 66.3633 65.4028 66.6839 65.4937L68.0876 65.8967C68.5121 66.0136 68.9367 66.1631 69.3613 66.3451C69.7859 66.527 70.1736 66.7566 70.5245 67.0339C70.8798 67.3068 71.1636 67.6426 71.3758 68.0412C71.5925 68.4354 71.7008 68.9098 71.7008 69.4644C71.7008 70.1749 71.5166 70.8139 71.1484 71.3815C70.7801 71.949 70.2516 72.3996 69.5627 72.7332C68.8739 73.0624 68.0486 73.2271 67.0868 73.2271C66.1813 73.2271 65.395 73.0776 64.7278 72.7787C64.0606 72.4754 63.5364 72.0573 63.1551 71.5244C62.7739 70.9915 62.5594 70.3742 62.5118 69.6723H63.7595C63.8028 70.1965 63.9761 70.6406 64.2794 71.0045C64.5827 71.3685 64.9769 71.6457 65.4621 71.8364C65.9474 72.0227 66.4889 72.1158 67.0868 72.1158C67.7496 72.1158 68.3388 72.0053 68.8544 71.7844C69.3743 71.5591 69.7815 71.2472 70.0761 70.8486C70.3751 70.4457 70.5245 69.9778 70.5245 69.4449C70.5245 68.9943 70.4076 68.6174 70.1736 68.3141C69.9397 68.0065 69.6126 67.7488 69.1923 67.5408C68.7764 67.3328 68.2934 67.1487 67.7431 66.9884L66.151 66.5205C65.1069 66.2086 64.2967 65.7775 63.7205 65.2273C63.1443 64.6771 62.8562 63.9752 62.8562 63.1218C62.8562 62.4069 63.0468 61.7787 63.4281 61.2372C63.8137 60.6913 64.3335 60.2667 64.9877 59.9635C65.6463 59.6559 66.3849 59.5021 67.2038 59.5021C68.0312 59.5021 68.7634 59.6537 69.4003 59.957C70.0371 60.2602 70.5419 60.6783 70.9144 61.2112C71.2914 61.7397 71.4928 62.3419 71.5188 63.0178H70.3426ZM75.249 60.7823V59.6905H84.8994V60.7823H80.6818V72.9996H79.4666V60.7823H75.249Z" fill="white"/>
<path d="M101.044 62.0175C101.044 60.9435 100.771 60.1895 100.225 59.7555C99.7567 59.4185 98.9947 59.2495 97.9377 59.2495H95.2727V60.3665H97.7947C98.4707 60.3665 98.9557 60.5055 99.2497 60.7825C99.5447 61.0605 99.6917 61.5625 99.6917 62.2905V66.8915C99.6917 68.9015 99.2027 70.3665 98.2237 71.2845C97.4607 72.0125 96.4597 72.3765 95.2207 72.3765C93.9727 72.3765 92.9597 72.0125 92.1797 71.2845C91.1827 70.3485 90.6847 68.8845 90.6847 66.8915V59.2495H89.3327V66.5275C89.3327 71.0335 91.2957 73.2865 95.2207 73.2865C99.1027 73.2865 101.044 71.0335 101.044 66.5275V62.0175ZM116.901 62.5505C116.901 60.3495 115.809 59.2495 113.625 59.2495H107.985C105.836 59.2495 104.761 60.2625 104.761 62.2905V66.2545C104.761 68.7585 105.428 70.6215 106.763 71.8435C107.803 72.8055 109.15 73.2865 110.805 73.2865C112.451 73.2865 113.807 72.8055 114.873 71.8435C116.225 70.6215 116.901 68.7585 116.901 66.2545V62.5505ZM113.95 71.1545C113.092 71.9515 112.044 72.3505 110.805 72.3505C109.566 72.3505 108.526 71.9515 107.686 71.1545C106.637 70.1405 106.113 68.6245 106.113 66.6055V62.2905C106.113 61.5625 106.273 61.0555 106.594 60.7695C106.914 60.4835 107.421 60.3405 108.114 60.3405H113.495C114.856 60.3405 115.536 61.0775 115.536 62.5505V66.6055C115.536 68.6245 115.007 70.1405 113.95 71.1545ZM125.791 62.7715C125.791 60.4235 124.734 59.2495 122.619 59.2495H120.618V60.3405H122.372C123.759 60.3405 124.452 61.1595 124.452 62.7975V71.5315C124.452 71.6875 124.383 71.7655 124.244 71.7655H119.955V72.8575H125.167C125.583 72.8575 125.791 72.5105 125.791 71.8175V62.7715Z" fill="white"/>
</svg>
